<svg width="19.708313" height="19.708252" viewBox="0 0 19.7083 19.7083" fill="none" xmlns="http://www.w3.org/2000/svg" xmlns:xlink="http://www.w3.org/1999/xlink">
	<desc>
			Created with Pixso.
	</desc>
	<defs/>
	<path id="Vector" d="M7.34 6.16C7.62 5.9 7.63 5.47 7.38 5.19C7.12 4.91 6.68 4.89 6.4 5.15L4.34 7.05C4.2 7.18 4.12 7.37 4.12 7.56C4.12 7.75 4.2 7.93 4.34 8.06L6.4 9.97C6.68 10.22 7.12 10.21 7.38 9.93C7.63 9.65 7.62 9.21 7.34 8.96L6.57 8.24L11.72 8.24C12.36 8.24 12.79 8.25 13.12 8.28C13.43 8.31 13.58 8.37 13.68 8.43C13.82 8.52 13.93 8.63 14.02 8.77C14.08 8.87 14.14 9.01 14.17 9.33C14.2 9.66 14.2 10.09 14.2 10.73C14.2 11.37 14.2 11.8 14.17 12.13C14.14 12.45 14.08 12.59 14.02 12.69C13.93 12.83 13.82 12.94 13.68 13.03C13.58 13.1 13.43 13.15 13.12 13.18C12.79 13.22 12.36 13.22 11.72 13.22L7.56 13.22C7.18 13.22 6.87 13.52 6.87 13.9C6.87 14.28 7.18 14.59 7.56 14.59L11.75 14.59C12.35 14.59 12.85 14.59 13.25 14.55C13.68 14.51 14.07 14.42 14.43 14.19C14.73 13.99 14.98 13.74 15.17 13.44C15.41 13.08 15.5 12.69 15.54 12.27C15.58 11.86 15.58 11.36 15.58 10.76L15.58 10.7C15.58 10.1 15.58 9.6 15.54 9.2C15.5 8.77 15.41 8.38 15.17 8.02C14.98 7.72 14.73 7.47 14.43 7.27C14.07 7.04 13.68 6.95 13.25 6.91C12.85 6.87 12.35 6.87 11.75 6.87L6.57 6.87L7.34 6.16Z" fill="currentColor" fillOpacity="1.000000" fillRule="nonzero"/>
	<path id="Vector" d="M9.8 0C7.68 0 6.02 0 4.73 0.17C3.4 0.35 2.36 0.72 1.54 1.54C0.72 2.36 0.35 3.4 0.17 4.73C0 6.02 0 7.68 0 9.8L0 9.9C0 12.02 0 13.68 0.17 14.97C0.35 16.29 0.72 17.34 1.54 18.16C2.36 18.98 3.4 19.35 4.73 19.53C6.02 19.7 7.68 19.7 9.8 19.7L9.9 19.7C12.02 19.7 13.68 19.7 14.97 19.53C16.29 19.35 17.34 18.98 18.16 18.16C18.98 17.34 19.35 16.29 19.53 14.97C19.7 13.68 19.7 12.02 19.7 9.9L19.7 9.8C19.7 7.68 19.7 6.02 19.53 4.73C19.35 3.4 18.98 2.36 18.16 1.54C17.34 0.72 16.29 0.35 14.97 0.17C13.68 0 12.02 0 9.9 0L9.8 0ZM2.51 2.51C3.03 1.99 3.74 1.69 4.91 1.53C6.1 1.37 7.67 1.37 9.85 1.37C12.03 1.37 13.6 1.37 14.79 1.53C15.96 1.69 16.67 1.99 17.19 2.51C17.71 3.03 18.01 3.74 18.17 4.91C18.33 6.1 18.33 7.67 18.33 9.85C18.33 12.03 18.33 13.6 18.17 14.79C18.01 15.96 17.71 16.66 17.19 17.19C16.67 17.71 15.96 18.01 14.79 18.17C13.6 18.33 12.03 18.33 9.85 18.33C7.67 18.33 6.1 18.33 4.91 18.17C3.74 18.01 3.03 17.71 2.51 17.19C1.99 16.66 1.69 15.96 1.53 14.79C1.37 13.6 1.37 12.03 1.37 9.85C1.37 7.67 1.37 6.1 1.53 4.91C1.69 3.74 1.99 3.03 2.51 2.51Z" fill="currentColor" fillOpacity="1.000000" fillRule="evenodd"/>
</svg>
