<svg width="43.345947" height="54.369019" viewBox="0 0 43.3459 54.369" fill="none" xmlns="http://www.w3.org/2000/svg" xmlns:xlink="http://www.w3.org/1999/xlink">
	<desc>
			Created with Pixso.
	</desc>
	<defs/>
	<path id="path" d="M1.69 54.36L36.82 54.36C40.42 54.36 43.34 51.44 43.34 47.84L43.34 16.09C43.34 16.06 43.32 16.02 43.32 15.99C43.31 15.83 43.28 15.68 43.23 15.54C43.21 15.48 43.19 15.42 43.17 15.37C43.1 15.22 43 15.08 42.89 14.96L27.8 0.47C27.66 0.33 27.5 0.24 27.33 0.16C27.28 0.13 27.23 0.12 27.18 0.11C27.03 0.06 26.89 0.03 26.73 0.02C26.7 0.01 26.67 0 26.63 0L1.69 0C0.76 0 0 0.76 0 1.69L0 52.67C0 53.6 0.76 54.36 1.69 54.36ZM28.33 5.68L37.41 14.39L31.45 14.39C29.73 14.39 28.33 13 28.33 11.27L28.33 5.68ZM3.39 3.39L24.93 3.39L24.93 11.28C24.93 14.87 27.85 17.79 31.45 17.79L39.94 17.79L39.94 47.85C39.94 49.57 38.54 50.97 36.82 50.97L3.39 50.97L3.39 3.39Z" fill="rgb(108, 114, 128)" fill-opacity="1.000000" fill-rule="nonzero"/>
</svg>
