<svg width="82.000000" height="82.000000" viewBox="0 0 82 82" fill="none" xmlns="http://www.w3.org/2000/svg" xmlns:xlink="http://www.w3.org/1999/xlink">
	<desc>
			Created with Pixso.
	</desc>
	<defs>
		<clipPath id="clip2010_324">
			<rect id="Avito_logo 1" rx="0.000000" width="51.000000" height="13.000000" transform="translate(15.500000 34.500000)" fill="white" fill-opacity="0"/>
		</clipPath>
	</defs>
	<circle id="Ellipse 31" cx="41.000000" cy="41.000000" r="41.000000" fill="#FFFFFF" fill-opacity="1.000000"/>
	<circle id="Ellipse 31" cx="41.000000" cy="41.000000" r="40.500000" stroke="#EEEEEE" stroke-opacity="1.000000" stroke-width="1.000000"/>
	<rect id="Avito_logo 1" rx="0.000000" width="51.000000" height="13.000000" transform="translate(15.500000 34.500000)" fill="#FFFFFF" fill-opacity="0"/>
	<g clip-path="url(#clip2010_324)">
		<mask id="mask2010_326" mask-type="alpha" maskUnits="userSpaceOnUse" x="15.000000" y="34.000000" width="52.000000" height="14.000000">
			<path id="Vector" d="M15 34L67 34L67 48L15 48L15 34Z" fill="#000000" fill-opacity="1.000000" fill-rule="evenodd"/>
		</mask>
		<g mask="url(#mask2010_326)">
			<path id="Vector" d="M34.87 34.32L30.39 46.73L32.8 46.73L33.73 44.14L38.49 44.14L39.42 46.73L41.81 46.73L37.34 34.32L34.87 34.32ZM34.54 41.86L36.11 37.5L37.67 41.86L34.54 41.86Z" fill="#000000" fill-opacity="1.000000" fill-rule="nonzero"/>
			<path id="Vector" d="M62.73 37.86C61.88 37.86 61.06 38.12 60.36 38.62C59.66 39.11 59.11 39.82 58.79 40.64C58.47 41.47 58.38 42.38 58.55 43.25C58.71 44.13 59.12 44.93 59.71 45.56C60.31 46.2 61.07 46.63 61.9 46.8C62.72 46.97 63.58 46.88 64.36 46.54C65.14 46.2 65.81 45.62 66.27 44.88C66.74 44.14 66.99 43.27 66.99 42.37C66.99 41.18 66.54 40.03 65.74 39.18C64.94 38.33 63.86 37.86 62.73 37.86ZM62.73 44.57C62.32 44.57 61.92 44.44 61.57 44.2C61.23 43.96 60.97 43.62 60.81 43.21C60.65 42.81 60.61 42.37 60.69 41.94C60.77 41.52 60.97 41.13 61.26 40.82C61.55 40.51 61.92 40.3 62.32 40.22C62.73 40.13 63.14 40.17 63.52 40.34C63.9 40.51 64.23 40.79 64.46 41.15C64.68 41.51 64.81 41.94 64.81 42.37C64.81 42.66 64.75 42.95 64.65 43.21C64.54 43.48 64.39 43.72 64.2 43.93C64.01 44.13 63.78 44.3 63.52 44.41C63.27 44.52 63 44.57 62.73 44.57Z" fill="#000000" fill-opacity="1.000000" fill-rule="nonzero"/>
			<path id="Vector" d="M44.68 43.53L42.74 38.01L40.44 38.01L43.57 46.73L45.85 46.73L48.93 38.01L46.63 38.01L44.68 43.53Z" fill="#000000" fill-opacity="1.000000" fill-rule="nonzero"/>
			<path id="Vector" d="M56.16 35.7L53.97 35.7L53.97 38.01L52.7 38.01L52.7 40.1L53.97 40.1L53.97 43.81C53.97 45.91 55.07 46.81 56.61 46.81C57.13 46.82 57.65 46.71 58.13 46.5L58.13 44.34C57.87 44.44 57.59 44.49 57.31 44.5C56.65 44.5 56.16 44.22 56.16 43.28L56.16 40.1L58.13 40.1L58.13 38.01L56.16 38.01L56.16 35.7Z" fill="#000000" fill-opacity="1.000000" fill-rule="nonzero"/>
			<path id="Vector" d="M50.73 37.39C51.61 37.39 52.32 36.63 52.32 35.7C52.32 34.77 51.61 34.01 50.73 34.01C49.85 34.01 49.13 34.77 49.13 35.7C49.13 36.63 49.85 37.39 50.73 37.39Z" fill="#000000" fill-opacity="1.000000" fill-rule="nonzero"/>
			<path id="Vector" d="M51.82 38.01L49.63 38.01L49.63 46.73L51.82 46.73L51.82 38.01Z" fill="#000000" fill-opacity="1.000000" fill-rule="nonzero"/>
			<path id="Vector" d="M19.28 47.97C21.63 47.97 23.54 45.95 23.54 43.45C23.54 40.96 21.63 38.94 19.28 38.94C16.92 38.94 15.01 40.96 15.01 43.45C15.01 45.95 16.92 47.97 19.28 47.97Z" fill="#04E061" fill-opacity="1.000000" fill-rule="nonzero"/>
			<path id="Vector" d="M26.67 47.4C28.1 47.4 29.25 46.18 29.25 44.67C29.25 43.16 28.1 41.94 26.67 41.94C25.25 41.94 24.1 43.16 24.1 44.67C24.1 46.18 25.25 47.4 26.67 47.4Z" fill="#FF4053" fill-opacity="1.000000" fill-rule="nonzero"/>
			<path id="Vector" d="M20.09 38.35C20.97 38.35 21.69 37.59 21.69 36.66C21.69 35.73 20.97 34.97 20.09 34.97C19.21 34.97 18.5 35.73 18.5 36.66C18.5 37.59 19.21 38.35 20.09 38.35Z" fill="#965EEB" fill-opacity="1.000000" fill-rule="nonzero"/>
			<path id="Vector" d="M25.67 41.35C27.59 41.35 29.14 39.71 29.14 37.68C29.14 35.65 27.59 34.01 25.67 34.01C23.76 34.01 22.21 35.65 22.21 37.68C22.21 39.71 23.76 41.35 25.67 41.35Z" fill="#00AAFF" fill-opacity="1.000000" fill-rule="nonzero"/>
		</g>
	</g>
</svg>
