<svg width="19.708313" height="19.708252" viewBox="0 0 19.7083 19.7083" fill="currentColor"
	xmlns="http://www.w3.org/2000/svg" xmlns:xlink="http://www.w3.org/1999/xlink">
	<desc>
		Created with Pixso.
	</desc>
	<defs />
	<path id="Vector"
		d="M10.77 6.18C10.77 5.68 10.36 5.27 9.85 5.27C9.34 5.27 8.93 5.68 8.93 6.18C8.93 6.69 9.34 7.1 9.85 7.1C10.36 7.1 10.77 6.69 10.77 6.18Z"
		fill="currentColor" fill-opacity="1.000000" fill-rule="nonzero" />
	<path id="Vector"
		d="M9.85 15.12C10.23 15.12 10.54 14.81 10.54 14.43L10.54 8.93C10.54 8.55 10.23 8.25 9.85 8.25C9.47 8.25 9.16 8.55 9.16 8.93L9.16 14.43C9.16 14.81 9.47 15.12 9.85 15.12Z"
		fill="currentColor" fill-opacity="1.000000" fill-rule="nonzero" />
	<path id="Vector"
		d="M9.9 0L9.8 0C7.68 0 6.02 0 4.73 0.17C3.4 0.35 2.36 0.72 1.54 1.54C0.72 2.36 0.35 3.4 0.17 4.73C0 6.02 0 7.68 0 9.8L0 9.9C0 12.02 0 13.68 0.17 14.97C0.35 16.29 0.72 17.34 1.54 18.16C2.36 18.98 3.4 19.35 4.73 19.53C6.02 19.7 7.68 19.7 9.8 19.7L9.9 19.7C12.02 19.7 13.68 19.7 14.97 19.53C16.29 19.35 17.34 18.98 18.16 18.16C18.98 17.34 19.35 16.29 19.53 14.97C19.7 13.68 19.7 12.02 19.7 9.9L19.7 9.8C19.7 7.68 19.7 6.02 19.53 4.73C19.35 3.4 18.98 2.36 18.16 1.54C17.34 0.72 16.29 0.35 14.97 0.17C13.68 0 12.02 0 9.9 0ZM2.51 2.51C3.03 1.99 3.74 1.69 4.91 1.53C6.1 1.37 7.67 1.37 9.85 1.37C12.03 1.37 13.6 1.37 14.79 1.53C15.96 1.69 16.67 1.99 17.19 2.51C17.71 3.03 18.01 3.74 18.17 4.91C18.33 6.1 18.33 7.67 18.33 9.85C18.33 12.03 18.33 13.6 18.17 14.79C18.01 15.96 17.71 16.66 17.19 17.19C16.67 17.71 15.96 18.01 14.79 18.17C13.6 18.33 12.03 18.33 9.85 18.33C7.67 18.33 6.1 18.33 4.91 18.17C3.74 18.01 3.03 17.71 2.51 17.19C1.99 16.66 1.69 15.96 1.53 14.79C1.37 13.6 1.37 12.03 1.37 9.85C1.37 7.67 1.37 6.1 1.53 4.91C1.69 3.74 1.99 3.03 2.51 2.51Z"
		fill="currentColor" fill-opacity="1.000000" fill-rule="evenodd" />
</svg>