<svg width="18.071442" height="18.464294" viewBox="0 0 18.0714 18.4643" fill="none" xmlns="http://www.w3.org/2000/svg" xmlnsXlink="http://www.w3.org/1999/xlink">
	<defs/>
	<path id="↳ Icon Color" d="M9.03 0C10.9 0 12.11 0.96 12.5 2.74L17.28 2.75C17.71 2.75 18.07 3.1 18.07 3.53C18.07 3.96 17.71 4.32 17.28 4.32L16.41 4.32L15.15 16.35C15.02 17.55 14.01 18.46 12.8 18.46L5.26 18.46C4.05 18.46 3.04 17.55 2.92 16.35L1.65 4.32L0.78 4.32C0.35 4.32 0 3.96 0 3.53C0 3.1 0.35 2.75 0.78 2.75L5.56 2.74C5.95 0.96 7.16 0 9.03 0ZM14.83 4.32L3.23 4.32L4.48 16.18C4.52 16.58 4.86 16.89 5.26 16.89L12.8 16.89C13.2 16.89 13.54 16.58 13.58 16.18L14.83 4.32ZM9.03 5.89C9.46 5.89 9.82 6.24 9.82 6.67L9.82 14.53C9.82 14.96 9.46 15.32 9.03 15.32C8.6 15.32 8.25 14.96 8.25 14.53L8.25 6.67C8.25 6.24 8.6 5.89 9.03 5.89ZM12.21 5.89C12.65 5.91 12.98 6.28 12.96 6.71L12.57 14.57C12.54 15 12.17 15.34 11.74 15.32C11.31 15.29 10.97 14.92 11 14.49L11.39 6.63C11.41 6.2 11.78 5.87 12.21 5.89ZM5.85 5.89C6.28 5.87 6.65 6.2 6.67 6.63L7.07 14.49C7.09 14.92 6.75 15.29 6.32 15.32C5.89 15.34 5.52 15 5.5 14.57L5.1 6.71C5.08 6.28 5.42 5.91 5.85 5.89ZM9.03 1.57C8.04 1.57 7.46 1.92 7.18 2.74L10.88 2.74C10.6 1.92 10.03 1.57 9.03 1.57Z" fill="currentColor" fillOpacity="1.000000" fillRule="nonzero"/>
</svg>
