<svg width="16.000000" height="16.000000" viewBox="0 0 20 20" fill="none" xmlns="http://www.w3.org/2000/svg" xmlns:xlink="http://www.w3.org/1999/xlink">
	<desc>
			Created with Pixso.
	</desc>
	<defs/>
	<path id="path" d="M18.74 1.46C19.04 1.12 19.04 0.58 18.74 0.25C18.44 -0.09 17.96 -0.09 17.66 0.25L1.25 18.53C0.95 18.87 0.95 19.41 1.25 19.74C1.55 20.08 2.03 20.08 2.33 19.74L5.25 16.49C6.66 17.23 8.27 17.71 10 17.71C12.75 17.71 15.22 16.48 16.99 14.96C17.88 14.2 18.61 13.35 19.13 12.52C19.64 11.71 20 10.82 20 10C20 9.17 19.64 8.28 19.13 7.47C18.61 6.64 17.88 5.79 16.99 5.03C16.72 4.8 16.44 4.58 16.14 4.36L18.74 1.46ZM15.02 5.61L13.2 7.63C13.61 8.31 13.84 9.12 13.84 10C13.84 12.36 12.12 14.28 10 14.28C9.21 14.28 8.48 14.02 7.87 13.57L6.42 15.19C7.51 15.69 8.73 16 10 16C12.34 16 14.49 14.94 16.05 13.6C16.84 12.93 17.45 12.21 17.87 11.54C18.3 10.85 18.46 10.31 18.46 10C18.46 9.68 18.3 9.14 17.87 8.45C17.45 7.78 16.84 7.06 16.05 6.39C15.73 6.11 15.39 5.85 15.02 5.61ZM9 12.32C9.3 12.48 9.64 12.57 10 12.57C11.27 12.57 12.3 11.42 12.3 10C12.3 9.6 12.22 9.22 12.08 8.89L9 12.32Z" fill="#000000" fill-opacity="1.000000" fill-rule="evenodd"/>
	<path id="path" d="M10 2.28C11.05 2.28 12.07 2.46 13.02 2.77C13.2 2.83 13.26 3.09 13.12 3.24L12.28 4.18C12.22 4.25 12.12 4.28 12.04 4.26C11.38 4.09 10.7 4 10 4C7.65 4 5.5 5.05 3.94 6.39C3.15 7.06 2.54 7.78 2.12 8.45C1.69 9.14 1.53 9.68 1.53 10C1.53 10.31 1.69 10.85 2.12 11.54C2.48 12.12 3 12.75 3.65 13.34C3.77 13.45 3.78 13.65 3.67 13.78L2.94 14.59C2.85 14.69 2.7 14.7 2.6 14.6C1.89 13.94 1.3 13.22 0.86 12.52C0.35 11.71 0 10.82 0 10C0 9.17 0.35 8.28 0.86 7.47C1.38 6.64 2.11 5.79 3 5.03C4.77 3.51 7.24 2.28 10 2.28Z" fill="#000000" fill-opacity="1.000000" fill-rule="nonzero"/>
	<path id="path" d="M10 5.71C10.12 5.71 10.24 5.72 10.36 5.73C10.56 5.75 10.63 6.02 10.49 6.18L9.24 7.56C8.57 7.82 8.04 8.41 7.81 9.16L6.57 10.54C6.43 10.7 6.18 10.62 6.17 10.4C6.15 10.26 6.15 10.13 6.15 10C6.15 7.63 7.87 5.71 10 5.71Z" fill="#000000" fill-opacity="1.000000" fill-rule="nonzero"/>
</svg>
