<svg width="15.000000" height="15.000000" viewBox="0 0 15 15" fill="none" xmlns="http://www.w3.org/2000/svg" xmlnsXlink="http://www.w3.org/1999/xlink">
	<desc>
			Created with Pixso.
	</desc>
	<defs/>
	<path id="↳ Icon Color" d="M7.5 0C11.63 0 15 3.35 15 7.5C15 11.63 11.63 15 7.5 15C3.35 15 0 11.63 0 7.5C0 3.35 3.35 0 7.5 0ZM9.8 5.3L6.45 8.64L5.18 7.36C4.85 7.04 4.32 7.04 3.99 7.36C3.66 7.69 3.66 8.23 3.99 8.55L5.86 10.43C6.19 10.76 6.73 10.76 7.05 10.43L10.99 6.49C11.32 6.16 11.32 5.63 10.99 5.3C10.66 4.97 10.13 4.97 9.8 5.3Z" fill="#8EBD55" fillOpacity="1.000000" fillRule="nonzero"/>
</svg>
