<svg width="31.000000" height="41.333374" viewBox="0 0 31 41.3334" fill="none" xmlns="http://www.w3.org/2000/svg" xmlns:xlink="http://www.w3.org/1999/xlink">
	<desc>
			Created with Pixso.
	</desc>
	<defs>
		<clipPath id="clip2014_532">
			<rect id="csv" rx="0.000000" width="29.851852" height="40.185184" transform="translate(0.574074 0.574074)" fill="white" fill-opacity="0"/>
		</clipPath>
	</defs>
	<rect id="csv" rx="0.000000" width="29.851852" height="40.185184" transform="translate(0.574074 0.574074)" fill="#FFFFFF" fill-opacity="0"/>
	<g clip-path="url(#clip2014_532)">
		<path id="Vector" d="M21.98 0L1.04 0C0.46 0 -0.01 0.48 -0.01 1.42L-0.01 40.59C-0.01 40.84 0.46 41.33 1.04 41.33L29.95 41.33C30.53 41.33 31 40.84 31 40.59L31 9.57C31 9.06 30.94 8.89 30.82 8.77L22.42 0.18C22.31 0.06 22.14 0 21.98 0Z" fill="#D8DFE3" fill-opacity="1.000000" fill-rule="nonzero"/>
		<path id="Vector" d="M29.95 41.33L1.04 41.33C0.46 41.33 -0.01 40.84 -0.01 40.25L-0.01 28.78L31 28.78L31 40.25C31 40.84 30.53 41.33 29.95 41.33Z" fill="#8EBD55" fill-opacity="1.000000" fill-rule="nonzero"/>
		<path id=".csv" d="M13.25 37.71Q13.83 38.06 14.69 38.06Q15.26 38.06 15.75 37.87C16.09 37.75 16.37 37.56 16.6 37.3Q16.61 37.29 16.62 37.28L16.62 37.28L16.62 37.28Q16.94 36.89 17.03 36.31L15.94 36.31Q15.87 36.6 15.69 36.78L15.69 36.78Q15.6 36.87 15.48 36.93C15.25 37.05 15 37.11 14.72 37.11Q14.17 37.11 13.83 36.86Q13.74 36.78 13.66 36.7Q13.45 36.48 13.33 36.19Q13.18 35.77 13.18 35.29Q13.18 34.94 13.27 34.62L13.27 34.62L13.27 34.62L13.27 34.62Q13.3 34.51 13.33 34.4Q13.44 34.1 13.64 33.88Q13.72 33.79 13.82 33.71Q14.16 33.44 14.73 33.44C15.01 33.44 15.26 33.5 15.46 33.62Q15.52 33.66 15.57 33.69L15.57 33.69Q15.81 33.88 15.92 34.23L16.98 34.23Q16.89 33.66 16.59 33.27Q16.48 33.12 16.35 33L16.35 33Q16.12 32.81 15.84 32.68Q15.37 32.48 14.77 32.48Q13.89 32.48 13.29 32.85Q13.04 33 12.84 33.21L12.84 33.21L12.84 33.21Q12.58 33.49 12.4 33.85Q12.12 34.48 12.12 35.29Q12.12 36.1 12.39 36.73Q12.56 37.09 12.82 37.36Q13.01 37.56 13.25 37.71ZM20.1 38.06C19.84 38.06 19.59 38.03 19.34 37.98C19.08 37.94 18.84 37.85 18.62 37.73C18.4 37.6 18.22 37.44 18.06 37.23C17.91 37.02 17.82 36.75 17.77 36.45L18.86 36.45C18.91 36.61 19.01 36.74 19.15 36.85C19.29 36.95 19.45 37.03 19.62 37.08Q19.89 37.15 20.15 37.15Q20.31 37.15 20.49 37.13C20.62 37.11 20.75 37.08 20.86 37.03C20.98 36.99 21.08 36.92 21.15 36.83C21.23 36.73 21.27 36.6 21.27 36.45Q21.27 36.3 21.2 36.19Q21.19 36.16 21.16 36.14Q21.07 36.01 20.9 35.94C20.79 35.88 20.65 35.84 20.49 35.81Q20.03 35.71 19.49 35.62C19.14 35.55 18.83 35.43 18.56 35.27C18.46 35.21 18.38 35.14 18.3 35.06C18.23 34.98 18.16 34.88 18.11 34.78Q18.1 34.77 18.09 34.75L18.09 34.75Q18.02 34.61 17.98 34.45Q17.94 34.28 17.94 34.07Q17.94 33.64 18.11 33.35Q18.18 33.22 18.28 33.11L18.28 33.11Q18.41 32.96 18.58 32.86C18.78 32.73 19.01 32.63 19.26 32.57C19.52 32.51 19.79 32.48 20.07 32.48Q20.62 32.48 21.06 32.65C21.36 32.77 21.6 32.94 21.79 33.17C21.99 33.4 22.1 33.68 22.14 34.03L21.13 34.03C21.09 33.84 20.97 33.69 20.77 33.58C20.58 33.47 20.33 33.41 20.04 33.41C19.93 33.41 19.82 33.41 19.7 33.43Q19.65 33.43 19.6 33.44Q19.48 33.47 19.36 33.52C19.25 33.57 19.16 33.64 19.09 33.73Q19.09 33.73 19.08 33.73L19.08 33.73Q18.98 33.86 18.98 34.06Q18.98 34.25 19.07 34.38Q19.07 34.39 19.08 34.39C19.15 34.48 19.24 34.55 19.37 34.61C19.5 34.66 19.65 34.71 19.81 34.74C20.04 34.8 20.3 34.85 20.56 34.9C20.84 34.94 21.06 35 21.24 35.05C21.46 35.11 21.66 35.2 21.82 35.32C21.98 35.44 22.1 35.58 22.19 35.76Q22.32 36.03 22.32 36.41Q22.32 36.91 22.13 37.23Q22.05 37.34 21.97 37.44L21.97 37.44Q21.81 37.61 21.6 37.73C21.38 37.85 21.14 37.94 20.87 37.98Q20.48 38.06 20.1 38.06ZM22.73 32.55L24.77 38L26.21 38L28.25 32.55L27.05 32.55L25.49 37.03L23.92 32.55L22.73 32.55ZM9.96 38.02Q10.12 38.1 10.32 38.1Q10.51 38.1 10.66 38.02Q10.74 37.97 10.82 37.9Q10.88 37.84 10.93 37.77Q11.02 37.6 11.02 37.39Q11.02 37.17 10.93 37.01L10.93 37.01Q10.88 36.93 10.82 36.87Q10.73 36.78 10.63 36.73Q10.49 36.66 10.32 36.66Q10.16 36.66 10.02 36.72Q9.91 36.77 9.81 36.87Q9.75 36.93 9.7 37.01L9.7 37.01Q9.61 37.17 9.61 37.39Q9.61 37.62 9.71 37.79Q9.75 37.85 9.8 37.9Q9.88 37.97 9.96 38.02Z" fill="#FFFFFF" fill-opacity="1.000000" fill-rule="evenodd"/>
		<path id="Vector" d="M22.35 0.11L22.35 8.85L30.89 8.85L22.35 0.11Z" fill="#AFBDC7" fill-opacity="1.000000" fill-rule="nonzero"/>
	</g>
</svg>
