<svg width="20.000000" height="20.000000" viewBox="0 0 20 20" fill="none" xmlns="http://www.w3.org/2000/svg" xmlns:xlink="http://www.w3.org/1999/xlink">
	<desc>
			Created with Pixso.
	</desc>
	<defs/>
	<path id="↳ Icon Color" d="M4.49 4.49C4.77 4.21 5.22 4.21 5.5 4.49L10 8.98L14.49 4.49C14.75 4.23 15.15 4.21 15.43 4.43L15.5 4.49C15.78 4.77 15.78 5.22 15.5 5.5L11.01 10L15.5 14.49C15.76 14.75 15.78 15.15 15.56 15.43L15.5 15.5C15.22 15.78 14.77 15.78 14.49 15.5L10 11.01L5.5 15.5C5.24 15.76 4.84 15.78 4.56 15.56L4.49 15.5C4.21 15.22 4.21 14.77 4.49 14.49L8.98 10L4.49 5.5C4.23 5.24 4.21 4.84 4.43 4.56L4.49 4.49Z" fill="#6C7280" fill-opacity="1.000000" fill-rule="nonzero"/>
</svg>
