<svg width="31.014435" height="41.333374" viewBox="0 0 31.0144 41.3334" fill="none" xmlns="http://www.w3.org/2000/svg" xmlns:xlink="http://www.w3.org/1999/xlink">
	<desc>
			Created with Pixso.
	</desc>
	<defs/>
	<path id="Vector" d="M21.98 0L1.05 0C0.47 0 1.52e-5 0.48 1.52e-5 1.42L1.52e-5 40.59C1.52e-5 40.84 0.47 41.33 1.05 41.33L29.95 41.33C30.54 41.33 31.01 40.84 31.01 40.59L31.01 9.57C31.01 9.06 30.94 8.89 30.82 8.77L22.43 0.18C22.31 0.06 22.15 0 21.98 0Z" fill="#306BFF" fill-opacity="1.000000" fill-rule="nonzero"/>
	<path id="Vector" d="M29.95 41.33L1.05 41.33C0.47 41.33 0 40.84 0 40.25L0 28.78L31.01 28.78L31.01 40.25C31.01 40.84 30.54 41.33 29.95 41.33Z" fill="#214DBA" fill-opacity="1.000000" fill-rule="nonzero"/>
	<path id=".docx" d="M7.26 38.06Q6.44 38.06 5.91 37.7Q5.75 37.58 5.61 37.45L5.61 37.45Q5.3 37.13 5.11 36.69Q4.85 36.06 4.85 35.28Q4.85 34.48 5.12 33.85Q5.3 33.42 5.6 33.12L5.6 33.12Q5.76 32.97 5.94 32.85Q6.49 32.48 7.32 32.48C7.53 32.48 7.74 32.5 7.94 32.55Q8.26 32.62 8.53 32.78Q8.66 32.84 8.77 32.93Q8.9 33.04 9.01 33.17L9.01 30.69L10.07 30.69L10.07 38L9.05 38L9.01 37.25C8.88 37.44 8.73 37.59 8.54 37.72C8.36 37.83 8.16 37.92 7.94 37.97L7.94 37.97Q7.61 38.06 7.26 38.06ZM12.37 37.72C12.76 37.94 13.24 38.06 13.81 38.06C14.38 38.06 14.86 37.94 15.24 37.72C15.63 37.48 15.93 37.15 16.13 36.73Q16.44 36.1 16.44 35.29Q16.44 34.45 16.14 33.82Q15.98 33.47 15.72 33.21Q15.52 33 15.25 32.84C14.86 32.6 14.38 32.48 13.82 32.48Q12.97 32.48 12.38 32.84Q12.13 32.99 11.93 33.19Q11.66 33.46 11.48 33.82Q11.17 34.44 11.17 35.28Q11.17 36.1 11.47 36.73C11.68 37.15 11.98 37.48 12.37 37.72ZM19.9 38.06C19.33 38.06 18.85 37.94 18.46 37.71C18.08 37.47 17.8 37.15 17.61 36.73Q17.33 36.1 17.33 35.29Q17.33 34.48 17.62 33.85Q17.79 33.49 18.05 33.21L18.05 33.21Q18.25 33 18.5 32.85Q19.1 32.48 19.98 32.48C20.38 32.48 20.74 32.55 21.05 32.68C21.36 32.81 21.61 33.01 21.8 33.27C22 33.53 22.13 33.85 22.19 34.23L21.13 34.23C21.04 33.95 20.89 33.75 20.67 33.62C20.47 33.5 20.22 33.44 19.94 33.44C19.56 33.44 19.26 33.53 19.03 33.71C18.81 33.89 18.65 34.12 18.55 34.4C18.44 34.68 18.39 34.98 18.39 35.29C18.39 35.61 18.44 35.91 18.55 36.19C18.66 36.46 18.82 36.69 19.04 36.86C19.27 37.02 19.57 37.11 19.93 37.11Q20.24 37.11 20.51 37.01Q20.6 36.98 20.69 36.93Q20.81 36.87 20.9 36.78Q21.08 36.6 21.15 36.31L22.24 36.31Q22.15 36.89 21.83 37.28Q21.83 37.28 21.83 37.28Q21.82 37.29 21.81 37.3C21.58 37.56 21.3 37.75 20.96 37.87C20.63 38 20.28 38.06 19.9 38.06ZM24.57 35.22L22.64 38L23.84 38L25.22 36.01L26.63 38L27.89 38L25.92 35.25L27.75 32.55L26.52 32.55L25.28 34.5L24 32.55L22.73 32.55L24.57 35.22ZM8.28 36.86Q8.29 36.86 8.3 36.85Q8.42 36.76 8.52 36.66Q8.71 36.45 8.83 36.17Q8.83 36.16 8.83 36.16L8.83 36.16Q9.01 35.74 9.01 35.25Q9.01 34.74 8.83 34.34C8.72 34.06 8.55 33.84 8.32 33.69Q7.97 33.44 7.44 33.44Q6.88 33.44 6.55 33.7C6.33 33.86 6.17 34.09 6.06 34.37Q5.92 34.79 5.92 35.3C5.92 35.55 5.95 35.78 6 36Q6.08 36.31 6.25 36.57Q6.25 36.57 6.25 36.57Q6.26 36.58 6.26 36.58Q6.31 36.65 6.38 36.72Q6.53 36.87 6.73 36.97C6.93 37.06 7.16 37.11 7.44 37.11Q7.95 37.11 8.28 36.86ZM14.7 36.86C14.48 37.02 14.18 37.11 13.81 37.11Q13.26 37.11 12.91 36.86Q12.77 36.76 12.66 36.64Q12.49 36.45 12.39 36.2Q12.23 35.78 12.23 35.28Q12.23 34.78 12.39 34.37Q12.49 34.12 12.66 33.93L12.66 33.93Q12.77 33.8 12.91 33.71Q13.26 33.45 13.81 33.45C14.18 33.45 14.48 33.53 14.7 33.71C14.94 33.87 15.11 34.09 15.22 34.37Q15.39 34.78 15.39 35.28Q15.39 35.77 15.22 36.2C15.11 36.47 14.94 36.69 14.7 36.86ZM3.06 38.1Q2.86 38.1 2.7 38.02Q2.61 37.97 2.54 37.9Q2.49 37.85 2.45 37.79Q2.35 37.62 2.35 37.39C2.35 37.17 2.41 37 2.55 36.87Q2.65 36.77 2.76 36.72L2.76 36.72L2.76 36.72Q2.9 36.66 3.06 36.66Q3.23 36.66 3.37 36.73L3.37 36.73Q3.47 36.78 3.55 36.87C3.69 37 3.76 37.17 3.76 37.39Q3.76 37.6 3.66 37.77Q3.62 37.84 3.55 37.9Q3.48 37.97 3.39 38.02Q3.25 38.1 3.06 38.1Z" fill="#FFFFFF" fill-opacity="1.000000" fill-rule="evenodd"/>
	<path id="Vector" d="M22.35 0.11L22.35 8.85L30.9 8.85L22.35 0.11Z" fill="#7098FF" fill-opacity="1.000000" fill-rule="nonzero"/>
</svg>
