<svg width="22.000000" height="22.000000" viewBox="0 0 22 22" fill="none" xmlns="http://www.w3.org/2000/svg" xmlnsXlink="http://www.w3.org/1999/xlink">
	<desc>
			Created with Pixso.
	</desc>
	<defs>
		<clipPath id="clip2015_763">
			<rect id="Frame" rx="0.000000" width="21.000000" height="21.000000" transform="translate(0.500000 0.500000)" fill="white" fillOpacity="0"/>
		</clipPath>
	</defs>
	<rect id="Frame" rx="0.000000" width="21.000000" height="21.000000" transform="translate(0.500000 0.500000)" fill="#FFFFFF" fill-opacity="0"/>
	<g clip-path="url(#clip2015_763)">
		<path id="Vector" d="M11 7.56C9.1 7.56 7.56 9.1 7.56 11C7.56 12.89 9.1 14.43 11 14.43C12.89 14.43 14.43 12.89 14.43 11C14.43 9.1 12.89 7.56 11 7.56ZM8.93 11C8.93 9.86 9.86 8.93 11 8.93C12.13 8.93 13.06 9.86 13.06 11C13.06 12.13 12.13 13.06 11 13.06C9.86 13.06 8.93 12.13 8.93 11Z" fill="currentColor" fillOpacity="1.000000" fillRule="evenodd"/>
		<path id="Vector" d="M11 1.14C10.35 1.14 9.76 1.32 9.11 1.62C8.49 1.91 7.77 2.34 6.87 2.87L6.17 3.28C5.27 3.81 4.55 4.24 3.99 4.65C3.42 5.07 2.98 5.51 2.66 6.07C2.34 6.64 2.19 7.25 2.12 7.97C2.06 8.66 2.06 9.52 2.06 10.59L2.06 11.4C2.06 12.47 2.06 13.33 2.12 14.02C2.19 14.74 2.34 15.35 2.66 15.92C2.98 16.48 3.42 16.92 3.99 17.34C4.55 17.75 5.27 18.18 6.17 18.71L6.87 19.12C7.77 19.65 8.49 20.08 9.11 20.37C9.76 20.67 10.35 20.85 11 20.85C11.64 20.85 12.23 20.67 12.88 20.37C13.5 20.08 14.22 19.65 15.12 19.12L15.82 18.71C16.72 18.18 17.44 17.75 18 17.34C18.57 16.92 19.01 16.48 19.33 15.92C19.65 15.35 19.8 14.74 19.87 14.02C19.93 13.33 19.93 12.47 19.93 11.4L19.93 10.59C19.93 9.52 19.93 8.66 19.87 7.97C19.8 7.25 19.65 6.64 19.33 6.07C19.01 5.51 18.57 5.07 18 4.65C17.44 4.24 16.72 3.81 15.82 3.28L15.12 2.87C14.22 2.34 13.5 1.91 12.88 1.62C12.23 1.32 11.64 1.14 11 1.14ZM7.53 4.07C8.48 3.51 9.14 3.12 9.69 2.86C10.23 2.61 10.62 2.52 11 2.52C11.37 2.52 11.76 2.61 12.3 2.86C12.85 3.12 13.51 3.51 14.46 4.07L15.08 4.44C16.03 5 16.69 5.4 17.18 5.76C17.67 6.11 17.94 6.41 18.14 6.75C18.33 7.09 18.44 7.49 18.5 8.1C18.56 8.72 18.56 9.51 18.56 10.62L18.56 11.37C18.56 12.48 18.56 13.27 18.5 13.89C18.44 14.5 18.33 14.9 18.14 15.24C17.94 15.58 17.67 15.88 17.18 16.23C16.69 16.59 16.03 16.99 15.08 17.55L14.46 17.92C13.51 18.48 12.85 18.87 12.3 19.13C11.76 19.38 11.37 19.47 11 19.47C10.62 19.47 10.23 19.38 9.69 19.13C9.14 18.87 8.48 18.48 7.53 17.92L6.91 17.55C5.96 16.99 5.3 16.59 4.81 16.23C4.32 15.88 4.05 15.58 3.85 15.24C3.66 14.9 3.55 14.5 3.49 13.89C3.43 13.27 3.43 12.48 3.43 11.37L3.43 10.62C3.43 9.51 3.43 8.72 3.49 8.1C3.55 7.49 3.66 7.09 3.85 6.75C4.05 6.41 4.32 6.11 4.81 5.76C5.3 5.4 5.96 5 6.91 4.44L7.53 4.07Z" fill="currentColor" fillOpacity="1.000000" fillRule="evenodd"/>
	</g>
</svg>
