<svg width="82.000000" height="82.000000" viewBox="0 0 82 82" fill="none" xmlns="http://www.w3.org/2000/svg" xmlns:xlink="http://www.w3.org/1999/xlink">
	<desc>
			Created with Pixso.
	</desc>
	<defs/>
	<circle id="Ellipse 31" cx="41.000000" cy="41.000000" r="41.000000" fill="#219436" fill-opacity="1.000000"/>
	<path id="↳ Icon Color" d="M49.24 27.95L49.4 28.05C49.44 28.08 49.48 28.11 49.53 28.14L49.4 28.05C49.5 28.12 49.61 28.19 49.71 28.26L49.53 28.14C49.64 28.21 49.75 28.29 49.86 28.37L49.71 28.26C49.82 28.34 49.92 28.41 50.03 28.49L50.03 28.49C50.19 28.6 50.35 28.72 50.5 28.84C50.69 28.99 50.88 29.14 51.06 29.3C51.36 29.56 51.65 29.83 51.93 30.11L51.82 30C51.9 30.08 51.98 30.16 52.06 30.25L51.93 30.11C52.03 30.22 52.13 30.32 52.23 30.42L52.06 30.25C52.16 30.34 52.25 30.44 52.34 30.54L52.23 30.42C52.32 30.51 52.4 30.6 52.48 30.69L52.34 30.54C52.43 30.64 52.52 30.74 52.61 30.84L52.48 30.69C52.57 30.79 52.65 30.89 52.74 30.99L52.61 30.84C52.7 30.94 52.78 31.04 52.87 31.14L52.74 30.99C52.83 31.09 52.91 31.19 52.99 31.3L52.99 31.3C53.35 31.74 53.69 32.2 54 32.69L53.89 32.51C53.97 32.65 54.06 32.78 54.14 32.92L54 32.69C54.06 32.79 54.13 32.9 54.2 33L54.14 32.92C54.2 33.01 54.25 33.1 54.3 33.19L54.2 33C54.27 33.13 54.34 33.25 54.41 33.37L54.41 33.37C54.52 33.56 54.62 33.76 54.73 33.95C54.76 34.02 54.8 34.09 54.83 34.17C54.93 34.36 55.02 34.56 55.11 34.76C55.41 35.43 55.66 36.12 55.86 36.83L55.94 37.14L56.05 37.6C56.06 37.66 56.07 37.71 56.09 37.77L56.17 38.21L56.25 38.68C56.28 38.87 56.3 39.05 56.32 39.24L56.28 38.87C56.3 39.03 56.32 39.19 56.34 39.36L56.34 39.36C56.38 39.73 56.4 40.11 56.42 40.49L56.42 40.49L56.42 41L56.42 41.45C56.41 41.53 56.41 41.61 56.41 41.68C56.39 42.04 56.36 42.39 56.33 42.74L56.34 42.64C56.32 42.8 56.3 42.97 56.28 43.14L56.33 42.74C56.31 42.92 56.28 43.09 56.26 43.27L56.26 43.27C56.2 43.64 56.13 44.01 56.05 44.38L56.05 44.38L55.94 44.85L55.86 45.16C55.62 46 55.32 46.8 54.95 47.58C54.76 47.98 54.56 48.37 54.34 48.75L54.41 48.62C54.35 48.73 54.29 48.83 54.22 48.94L54.34 48.75C54.27 48.87 54.2 48.99 54.12 49.11L54.22 48.94C54.16 49.05 54.08 49.17 54.01 49.28L54.12 49.11C54.05 49.23 53.97 49.35 53.89 49.47L54.01 49.28C53.96 49.36 53.91 49.43 53.86 49.51L53.89 49.47C53.83 49.56 53.77 49.65 53.71 49.73L53.86 49.51C53.76 49.67 53.65 49.82 53.54 49.98L53.71 49.73C53.64 49.84 53.56 49.96 53.48 50.06L53.48 50.06C53.14 50.53 52.78 50.97 52.39 51.39L52.47 51.3C52.38 51.4 52.29 51.5 52.2 51.6L52.39 51.39C52.3 51.5 52.2 51.6 52.1 51.71L52.2 51.6C52.12 51.69 52.03 51.78 51.95 51.86L52.1 51.71C52 51.8 51.91 51.9 51.81 51.99L51.95 51.86C51.88 51.93 51.82 51.99 51.75 52.05L51.76 52.05C51.6 52.2 51.45 52.35 51.29 52.49C50.95 52.79 50.59 53.08 50.22 53.36L50.32 53.29C50.21 53.37 50.1 53.45 49.99 53.53L50.22 53.36C50.13 53.43 50.03 53.51 49.93 53.58L49.99 53.53C49.89 53.61 49.79 53.67 49.69 53.74L49.93 53.58C49.8 53.67 49.67 53.76 49.54 53.85L49.69 53.74C49.6 53.8 49.52 53.86 49.44 53.91L49.54 53.85C49.43 53.91 49.33 53.98 49.22 54.05L49.22 54.05C48.73 54.36 48.23 54.64 47.7 54.89L47.87 54.81C47.74 54.88 47.61 54.94 47.49 55L47.7 54.89C47.59 54.95 47.48 55 47.37 55.05L47.49 55C47.37 55.05 47.25 55.1 47.13 55.16L47.37 55.05C47.24 55.11 47.1 55.17 46.96 55.23L47.13 55.16C47 55.21 46.86 55.27 46.72 55.33L46.96 55.23C46.86 55.27 46.75 55.31 46.64 55.36L46.72 55.33C46.6 55.37 46.48 55.42 46.36 55.47L46.64 55.36C46.51 55.41 46.37 55.46 46.22 55.51L46.36 55.47C46.19 55.53 46.03 55.58 45.86 55.64L45.86 55.64C45.61 55.72 45.36 55.8 45.11 55.87L45.27 55.82C45.15 55.86 45.04 55.89 44.92 55.92L45.11 55.87C44.97 55.91 44.84 55.94 44.7 55.97L44.92 55.92C44.78 55.96 44.65 55.99 44.51 56.02L44.7 55.97C44.58 56 44.46 56.03 44.34 56.06L44.51 56.02C44.38 56.05 44.25 56.08 44.12 56.11L44.34 56.06C44.19 56.09 44.04 56.12 43.89 56.15L44.12 56.11C43.99 56.13 43.87 56.16 43.74 56.18L43.89 56.15C43.78 56.17 43.66 56.2 43.54 56.22L43.54 56.21C43.38 56.24 43.23 56.26 43.07 56.28L42.92 56.3L42.55 56.35C42.04 56.4 41.52 56.42 40.99 56.42C40.06 56.42 39.14 56.34 38.25 56.18L38.44 56.21C38.3 56.19 38.15 56.16 38.01 56.14L38.25 56.18C38.14 56.16 38.03 56.14 37.91 56.12L37.91 56.12C37.65 56.06 37.39 56 37.13 55.94L37.23 55.96C37.11 55.93 36.99 55.9 36.87 55.87L37.13 55.94C37 55.9 36.87 55.87 36.74 55.83L36.74 55.83C36.41 55.74 36.09 55.63 35.77 55.51L36.13 55.64C35.93 55.58 35.74 55.51 35.55 55.44L35.77 55.51C35.64 55.47 35.52 55.43 35.4 55.38L35.55 55.44C35.4 55.38 35.26 55.32 35.12 55.27L35.4 55.38C35.28 55.33 35.16 55.28 35.04 55.23L35.12 55.27C35.02 55.22 34.92 55.18 34.82 55.14L35.04 55.23C34.92 55.18 34.8 55.13 34.67 55.07L34.82 55.14C34.69 55.08 34.57 55.03 34.45 54.97L34.67 55.07C34.55 55.02 34.44 54.96 34.32 54.91L34.45 54.97C34.34 54.92 34.23 54.87 34.12 54.81L34.12 54.81C33.94 54.72 33.75 54.62 33.57 54.52C33.49 54.48 33.41 54.43 33.33 54.39C33.07 54.24 32.81 54.08 32.55 53.91L32.77 54.05C32.66 53.98 32.56 53.91 32.45 53.85L32.55 53.91C32.46 53.85 32.37 53.79 32.28 53.73L32.45 53.85C32.34 53.77 32.22 53.69 32.11 53.61L32.28 53.73C32.17 53.65 32.06 53.57 31.95 53.49L32.11 53.61C32 53.53 31.89 53.45 31.77 53.37L31.95 53.49C31.85 53.43 31.76 53.36 31.67 53.29L31.67 53.29C31.33 53.03 31.01 52.77 30.7 52.49C30.52 52.33 30.35 52.16 30.18 51.99L30.23 52.05C30.17 51.99 30.11 51.93 30.04 51.86L30.18 51.99C30.08 51.9 29.99 51.8 29.89 51.71L30.04 51.86C29.96 51.78 29.87 51.69 29.79 51.6L29.89 51.71C29.79 51.6 29.69 51.5 29.6 51.39L29.79 51.6C29.7 51.5 29.61 51.4 29.52 51.3L29.52 51.3C29.14 50.88 28.78 50.44 28.45 49.98L28.51 50.06C28.43 49.96 28.35 49.84 28.28 49.73L28.45 49.98C28.34 49.82 28.23 49.67 28.13 49.51L28.28 49.73C28.22 49.65 28.16 49.56 28.1 49.47L28.13 49.51C28.08 49.43 28.03 49.36 27.98 49.28L28.1 49.47C28.02 49.35 27.94 49.23 27.87 49.11L27.98 49.28C27.9 49.17 27.83 49.05 27.77 48.94L27.87 49.11C27.79 48.99 27.72 48.87 27.65 48.75L27.77 48.94C27.7 48.83 27.64 48.73 27.58 48.62L27.58 48.62C27.36 48.23 27.15 47.82 26.96 47.41L27.04 47.58C26.98 47.46 26.92 47.34 26.87 47.21L26.87 47.21C26.58 46.55 26.33 45.86 26.13 45.16L26.05 44.85L25.94 44.38C25.93 44.33 25.92 44.28 25.91 44.23C25.83 43.87 25.77 43.51 25.71 43.14L25.73 43.27C25.71 43.09 25.68 42.92 25.66 42.74L25.71 43.14C25.69 42.97 25.67 42.81 25.65 42.64L25.65 42.64C25.61 42.26 25.59 41.87 25.57 41.49L25.57 41.49L25.57 41L25.57 40.49C25.58 40.43 25.58 40.37 25.58 40.31C25.6 39.95 25.63 39.59 25.67 39.24L25.65 39.36C25.67 39.19 25.69 39.03 25.71 38.87L25.71 38.87L25.74 38.68L25.82 38.21C25.85 38 25.9 37.8 25.94 37.6L25.94 37.6L26.05 37.14L26.13 36.83C26.33 36.12 26.58 35.43 26.88 34.76L26.85 34.82C26.95 34.6 27.05 34.38 27.16 34.17C27.19 34.09 27.23 34.02 27.26 33.95C27.4 33.69 27.54 33.44 27.69 33.19L27.58 33.37C27.65 33.25 27.72 33.13 27.79 33L27.69 33.19C27.74 33.1 27.79 33.01 27.85 32.92L27.79 33C27.86 32.9 27.93 32.79 27.99 32.69L27.85 32.92C27.93 32.78 28.02 32.65 28.1 32.51L28.1 32.51C28.42 32.04 28.76 31.58 29.12 31.14L29 31.29C29.08 31.19 29.17 31.09 29.25 30.99L29.12 31.14C29.21 31.04 29.29 30.94 29.38 30.84L29.25 30.99C29.34 30.89 29.42 30.79 29.51 30.69L29.38 30.84C29.47 30.74 29.56 30.64 29.65 30.54L29.51 30.69C29.59 30.6 29.67 30.51 29.76 30.42L29.65 30.54C29.74 30.44 29.83 30.34 29.92 30.25L29.76 30.42C29.86 30.32 29.96 30.22 30.06 30.11L29.92 30.25C30.01 30.16 30.09 30.08 30.17 30L30.17 30C30.42 29.76 30.67 29.53 30.93 29.3C31.11 29.14 31.3 28.99 31.49 28.84C31.69 28.68 31.9 28.53 32.11 28.38L31.96 28.49C32.09 28.39 32.23 28.3 32.36 28.21L32.11 28.38C32.21 28.31 32.31 28.24 32.41 28.17L32.36 28.21C32.46 28.14 32.56 28.07 32.66 28.01L32.41 28.17C32.52 28.1 32.63 28.02 32.75 27.95L32.75 27.95C32.94 27.83 33.13 27.71 33.33 27.6C33.41 27.56 33.49 27.51 33.57 27.47C33.8 27.34 34.03 27.22 34.26 27.11L34.15 27.16C34.26 27.11 34.37 27.06 34.48 27.01L34.26 27.11C34.39 27.05 34.52 26.99 34.65 26.93L34.48 27.01C34.6 26.95 34.72 26.89 34.85 26.84L34.65 26.93C34.77 26.87 34.9 26.82 35.02 26.77L35.02 26.77C35.23 26.68 35.44 26.6 35.65 26.52C35.81 26.46 35.97 26.4 36.13 26.35L35.93 26.42C36.04 26.38 36.15 26.34 36.25 26.31L36.13 26.35C36.25 26.31 36.37 26.27 36.5 26.23L36.25 26.31C36.4 26.26 36.55 26.22 36.7 26.17L36.5 26.23C36.63 26.19 36.76 26.16 36.89 26.12L36.7 26.17C36.82 26.14 36.95 26.1 37.09 26.07L36.89 26.12C37.02 26.08 37.15 26.05 37.29 26.02L37.09 26.07C37.21 26.03 37.35 26 37.48 25.97L37.29 26.02C37.41 25.98 37.54 25.95 37.67 25.93L37.48 25.97C37.6 25.94 37.73 25.91 37.86 25.89L37.67 25.93C37.81 25.89 37.96 25.86 38.11 25.84L37.86 25.89C37.99 25.86 38.12 25.83 38.25 25.81L38.11 25.84C38.22 25.81 38.34 25.79 38.45 25.78L38.45 25.78C38.61 25.75 38.76 25.73 38.92 25.71L39.07 25.69L39.44 25.64C39.95 25.59 40.47 25.57 40.99 25.57C41.93 25.57 42.85 25.65 43.74 25.81L43.55 25.78C43.69 25.8 43.83 25.83 43.97 25.85L43.74 25.81C43.85 25.83 43.96 25.85 44.07 25.87L44.07 25.87C44.35 25.93 44.61 25.99 44.88 26.06L44.76 26.03C44.87 26.06 44.99 26.09 45.11 26.12L44.88 26.06C45.01 26.09 45.14 26.13 45.27 26.17L45.27 26.16C45.53 26.24 45.8 26.33 46.06 26.42L46.06 26.42C46.24 26.48 46.43 26.55 46.61 26.62L46.4 26.54C46.54 26.59 46.68 26.64 46.81 26.7L46.61 26.62C46.72 26.66 46.84 26.71 46.96 26.76L46.81 26.7C46.92 26.75 47.03 26.79 47.14 26.84L46.96 26.76C47.08 26.81 47.21 26.87 47.34 26.93L47.14 26.84C47.27 26.89 47.39 26.95 47.51 27.01L47.34 26.93C47.47 26.99 47.6 27.05 47.73 27.11L47.51 27.01C47.62 27.06 47.73 27.11 47.84 27.16L47.84 27.16C48.04 27.26 48.23 27.36 48.42 27.47C48.7 27.62 48.97 27.78 49.24 27.95L49.24 27.95ZM44.1 47.17L37.89 47.17C38.55 49.79 39.63 52.14 40.99 54.06C42.36 52.14 43.44 49.79 44.1 47.17ZM29.42 47.17C31.19 50.47 34.32 52.93 38.07 53.78C36.94 51.83 36.07 49.59 35.51 47.17L29.42 47.17ZM52.57 47.17L46.48 47.17C45.92 49.59 45.05 51.83 43.92 53.78C47.67 52.93 50.8 50.47 52.57 47.17ZM35.09 37.14L28.46 37.14C28.08 38.36 27.88 39.65 27.88 41C27.88 42.34 28.08 43.63 28.46 44.85L35.09 44.85C34.91 43.6 34.82 42.31 34.82 41C34.82 39.68 34.91 38.39 35.09 37.14ZM44.56 37.14L37.43 37.14C37.24 38.38 37.14 39.67 37.14 41C37.14 42.32 37.24 43.61 37.42 44.85L44.56 44.85C44.75 43.61 44.85 42.32 44.85 41C44.85 39.67 44.75 38.38 44.56 37.14ZM53.53 37.14L46.9 37.14C47.08 38.39 47.17 39.68 47.17 41C47.17 42.31 47.08 43.6 46.9 44.85L53.53 44.85C53.91 43.63 54.11 42.34 54.11 41C54.11 39.65 53.91 38.36 53.53 37.14ZM38.07 28.21L37.84 28.26C34.2 29.16 31.15 31.59 29.42 34.82L35.51 34.82C36.07 32.4 36.94 30.16 38.07 28.21ZM41 27.93L40.94 28.01C39.6 29.91 38.55 32.23 37.89 34.82L44.1 34.82C43.44 32.19 42.36 29.85 41 27.93ZM43.92 28.21L44 28.35C45.09 30.27 45.93 32.46 46.48 34.82L52.57 34.82C50.8 31.52 47.67 29.06 43.92 28.21Z" fill="#FFFFFF" fill-opacity="1.000000" fill-rule="nonzero"/>
</svg>
