<svg width="15.000000" height="15.000000" viewBox="0 0 15 15" fill="none" xmlns="http://www.w3.org/2000/svg" xmlns:xlink="http://www.w3.org/1999/xlink">
	<desc>
			Created with Pixso.
	</desc>
	<defs/>
	<path id="Shape 446 copy" d="M7.5 0C8.69 0 9.86 0.28 10.92 0.83C11.98 1.38 12.89 2.17 13.59 3.14L11.15 4.89C10.79 4.37 10.32 3.94 9.77 3.61C9.23 3.29 8.62 3.09 7.99 3.02C7.37 2.95 6.73 3.02 6.13 3.21C5.53 3.41 4.98 3.73 4.51 4.15L2.53 1.89C3.89 0.67 5.66 -0.01 7.5 0Z" fill="#EA4335" fill-opacity="1.000000" fill-rule="evenodd"/>
	<path id="Shape 444 copy" d="M11.5 10L7 10L7 7L15 7L15 10C14.46 11.39 13.52 12.59 12.28 13.42L9.1 11.69C10.06 11.4 10.9 10.8 11.5 10Z" fill="#4285F4" fill-opacity="1.000000" fill-rule="evenodd"/>
	<path id="Shape 444 copy 2" d="M9.13 11.71L12.27 13.42C10.88 14.42 9.21 14.97 7.5 15C6.51 15 5.53 14.8 4.62 14.43C3.71 14.05 2.88 13.49 2.18 12.8L4.29 10.66C4.71 11.08 5.21 11.42 5.76 11.65C6.31 11.88 6.9 12 7.5 12C8.05 11.99 8.61 11.89 9.13 11.71Z" fill="#34A853" fill-opacity="1.000000" fill-rule="evenodd"/>
	<path id="Shape 444 copy 3" d="M4.51 4.15C4.05 4.55 3.68 5.05 3.42 5.6C3.16 6.15 3.02 6.75 3 7.36C2.98 7.96 3.08 8.57 3.31 9.14C3.53 9.7 3.86 10.22 4.29 10.65L2.18 12.79C1.46 12.07 0.89 11.21 0.52 10.26C0.14 9.31 -0.03 8.29 0 7.27C0.03 6.25 0.28 5.25 0.71 4.32C1.15 3.4 1.77 2.58 2.54 1.9L4.51 4.15Z" fill="#FBBC05" fill-opacity="1.000000" fill-rule="evenodd"/>
</svg>
