<svg width="19.708313" height="17.875000" viewBox="0 0 19.7083 17.875" fill="currentColor"
	xmlns="http://www.w3.org/2000/svg" xmlns:xlink="http://www.w3.org/1999/xlink">
	<desc>
		Created with Pixso.
	</desc>
	<defs />
	<path id="Vector"
		d="M0.91 8.93C0.91 4 4.91 0 9.85 0C14.79 0 18.79 4 18.79 8.93L18.79 11.49C18.86 11.47 18.94 11.45 19.02 11.45C19.4 11.45 19.7 11.76 19.7 12.14L19.7 13.97C19.7 14.35 19.4 14.66 19.02 14.66C18.93 14.66 18.85 14.65 18.78 14.62C18.77 14.8 18.77 14.97 18.75 15.13C18.71 15.53 18.63 15.89 18.44 16.24C18.31 16.47 18.14 16.68 17.95 16.86C17.65 17.13 17.31 17.28 16.94 17.39C16.58 17.5 16.14 17.59 15.61 17.69L15.55 17.71C15.19 17.78 14.86 17.84 14.59 17.86C14.3 17.88 13.97 17.87 13.66 17.69C13.47 17.59 13.31 17.45 13.18 17.28C12.96 17 12.89 16.68 12.86 16.39C12.83 16.11 12.83 15.77 12.83 15.39L12.83 10.59C12.83 10.27 12.83 9.98 12.85 9.74C12.88 9.48 12.93 9.21 13.1 8.95C13.24 8.74 13.43 8.56 13.65 8.44C13.92 8.28 14.2 8.25 14.45 8.25C14.69 8.24 14.97 8.27 15.28 8.3L15.34 8.31C15.88 8.36 16.33 8.41 16.7 8.48C16.95 8.53 17.19 8.6 17.41 8.7C17.29 4.63 13.95 1.37 9.85 1.37C5.75 1.37 2.41 4.63 2.29 8.7C2.51 8.6 2.75 8.53 3 8.48C3.37 8.41 3.82 8.36 4.36 8.31L4.42 8.3C4.73 8.27 5.01 8.24 5.25 8.25C5.5 8.25 5.78 8.28 6.05 8.44C6.27 8.56 6.46 8.74 6.6 8.95C6.76 9.21 6.82 9.48 6.85 9.74C6.87 9.98 6.87 10.27 6.87 10.59L6.87 15.39C6.87 15.77 6.87 16.11 6.84 16.39C6.81 16.68 6.74 17 6.52 17.28C6.39 17.45 6.23 17.59 6.04 17.69C5.72 17.87 5.4 17.88 5.11 17.86C4.84 17.84 4.51 17.78 4.15 17.71L4.08 17.69C3.56 17.59 3.12 17.5 2.76 17.39C2.39 17.28 2.04 17.13 1.75 16.86C1.56 16.68 1.39 16.47 1.26 16.24C1.06 15.89 0.98 15.53 0.95 15.13C0.93 14.97 0.92 14.8 0.92 14.62C0.85 14.65 0.77 14.66 0.68 14.66C0.3 14.66 0 14.35 0 13.97L0 12.14C0 11.76 0.3 11.45 0.68 11.45C0.76 11.45 0.84 11.47 0.91 11.49L0.91 8.93ZM2.29 13.69C2.29 14.29 2.29 14.69 2.32 15C2.34 15.3 2.39 15.45 2.45 15.56C2.52 15.66 2.59 15.76 2.68 15.84C2.77 15.92 2.89 16 3.16 16.08C3.44 16.16 3.82 16.24 4.38 16.35C4.79 16.43 5.03 16.48 5.21 16.49C5.31 16.5 5.36 16.49 5.37 16.49C5.39 16.48 5.42 16.46 5.43 16.43C5.44 16.42 5.46 16.37 5.47 16.24C5.49 16.05 5.5 15.79 5.5 15.36L5.5 10.62C5.5 10.26 5.49 10.04 5.48 9.87C5.47 9.76 5.45 9.71 5.45 9.71C5.43 9.67 5.4 9.65 5.37 9.63C5.36 9.63 5.32 9.62 5.24 9.62C5.08 9.62 4.87 9.64 4.52 9.67C3.95 9.73 3.56 9.77 3.27 9.83C2.99 9.88 2.86 9.94 2.77 10.01C2.64 10.11 2.53 10.23 2.45 10.38C2.39 10.48 2.34 10.63 2.32 10.94C2.29 11.25 2.29 11.65 2.29 12.26L2.29 13.69ZM17.41 12.26C17.41 11.65 17.41 11.25 17.38 10.94C17.36 10.63 17.31 10.48 17.25 10.38C17.16 10.23 17.06 10.11 16.93 10.01C16.84 9.94 16.71 9.88 16.43 9.83C16.14 9.77 15.75 9.73 15.17 9.67C14.82 9.64 14.62 9.62 14.46 9.62C14.38 9.62 14.34 9.63 14.33 9.63C14.3 9.65 14.27 9.67 14.25 9.71C14.25 9.71 14.23 9.76 14.22 9.87C14.2 10.04 14.2 10.26 14.2 10.62L14.2 15.36C14.2 15.79 14.2 16.05 14.23 16.24C14.24 16.37 14.26 16.42 14.26 16.43C14.28 16.46 14.31 16.48 14.33 16.49C14.34 16.49 14.39 16.5 14.48 16.49C14.67 16.48 14.91 16.43 15.31 16.35C15.88 16.24 16.25 16.16 16.54 16.08C16.81 16 16.93 15.92 17.02 15.84C17.1 15.76 17.18 15.66 17.24 15.56C17.31 15.45 17.35 15.3 17.38 15C17.41 14.69 17.41 14.29 17.41 13.69L17.41 12.26Z"
		fill="currentColor" fill-opacity="1.000000" fill-rule="evenodd" />
</svg>