<svg width="82.000000" height="82.000000" viewBox="0 0 82 82" fill="none" xmlns="http://www.w3.org/2000/svg" xmlns:xlink="http://www.w3.org/1999/xlink">
	<desc>
			Created with Pixso.
	</desc>
	<defs/>
	<circle id="Ellipse 31" cx="41.000000" cy="41.000000" r="41.000000" fill="#2F2847" fill-opacity="1.000000"/>
	<path id="Фигура 13" d="M45.13 34L38.88 34C38.76 34 38.65 34.03 38.55 34.08C38.45 34.13 38.36 34.2 38.28 34.28C38.2 34.36 38.13 34.45 38.08 34.56C38.03 34.66 38.01 34.77 38 34.89L38 37.12C38.01 37.24 38.03 37.35 38.08 37.46C38.13 37.57 38.2 37.66 38.28 37.74C38.36 37.82 38.45 37.89 38.55 37.94C38.65 37.98 38.76 38.01 38.88 38.01L42.05 38.01L42.05 54.05C42.05 54.76 41.8 55.45 41.33 55.99C40.86 56.53 40.22 56.88 39.51 56.98L38.88 56.98C38.64 56.99 38.42 57.08 38.26 57.25C38.09 57.42 38 57.64 38 57.87L38 60.1C38 60.33 38.08 60.55 38.24 60.73C38.32 60.81 38.41 60.88 38.52 60.93C38.63 60.98 38.75 61 38.87 60.99L39.18 60.99C40.92 60.99 42.58 60.31 43.84 59.11C45.1 57.91 45.86 56.26 45.96 54.52C45.99 54.38 46 54.24 45.99 54.1L45.99 34.89C46 34.77 45.97 34.66 45.93 34.55C45.88 34.44 45.81 34.34 45.73 34.26C45.66 34.18 45.56 34.11 45.46 34.06C45.36 34.02 45.24 33.99 45.13 34Z" fill="#FFFFFF" fill-opacity="1.000000" fill-rule="evenodd"/>
	<path id="Фигура 13 копия" d="M38.02 20C37.47 30.5 46 32 46 32C45.57 20.49 38.02 20 38.02 20Z" fill="#1BC339" fill-opacity="1.000000" fill-rule="evenodd"/>
</svg>
