<svg width="14.208313" height="19.708496" viewBox="0 0 14.2083 19.7085" fill="currentColor"
	xmlns="http://www.w3.org/2000/svg" xmlns:xlink="http://www.w3.org/1999/xlink">
	<desc>
		Created with Pixso.
	</desc>
	<defs />
	<path id="Vector"
		d="M4.58 16.72C4.58 16.34 4.89 16.04 5.27 16.04L8.93 16.04C9.31 16.04 9.62 16.34 9.62 16.72C9.62 17.1 9.31 17.41 8.93 17.41L5.27 17.41C4.89 17.41 4.58 17.1 4.58 16.72ZM5.19 19.02C5.19 18.64 5.5 18.33 5.88 18.33L8.32 18.33C8.7 18.33 9.01 18.64 9.01 19.02C9.01 19.4 8.7 19.7 8.32 19.7L5.88 19.7C5.5 19.7 5.19 19.4 5.19 19.02Z"
		fill="currentColor" fill-opacity="1.000000" fill-rule="evenodd" />
	<path id="Vector"
		d="M0 6.38C0 2.8 3.25 0 7.1 0C10.95 0 14.2 2.8 14.2 6.38L14.2 6.39C14.19 8.41 13.32 10.42 11.78 11.89L11.78 11.89L10.77 12.84C10.62 12.98 10.54 13.17 10.54 13.37C10.54 14.34 9.75 15.12 8.79 15.12L5.41 15.12C4.44 15.12 3.66 14.34 3.66 13.37C3.66 13.17 3.58 12.98 3.43 12.84L2.42 11.89L2.42 11.89C0.87 10.42 0 8.41 0 6.39L0 6.38ZM1.37 6.38C1.38 8.02 2.09 9.68 3.36 10.89L3.37 10.89L4.38 11.84C4.8 12.24 5.04 12.79 5.04 13.37C5.04 13.58 5.2 13.75 5.41 13.75L8.79 13.75C8.99 13.75 9.16 13.58 9.16 13.37C9.16 12.79 9.4 12.24 9.82 11.84L10.83 10.89L10.83 10.89C12.11 9.68 12.82 8.02 12.83 6.38C12.83 3.71 10.34 1.37 7.1 1.37C3.86 1.37 1.37 3.71 1.37 6.38Z"
		fill="currentColor" fill-opacity="1.000000" fill-rule="evenodd" />
</svg>