<svg width="171.000000" height="171.000000" viewBox="0 0 171 171" fill="none" xmlns="http://www.w3.org/2000/svg" xmlns:xlink="http://www.w3.org/1999/xlink">
	<desc>
			Created with Pixso.
	</desc>
	<defs/>
	<circle id="Ellipse 23" cx="85.500000" cy="85.500000" r="85.500000" fill="#F1F4F1" fill-opacity="1.000000"/>
	<path id="Union" d="M53.2302 54.1797C61.6005 44.0625 72.4235 39.0198 85.5007 38.7261L85.5016 38.7261C89.4182 38.7297 93.2415 39.3035 96.9955 40.3596C98.5798 40.8052 100.129 41.3547 101.64 42.0085C110.667 45.9163 117.516 52.2029 122.19 60.8572C123.527 63.333 124.563 65.9368 125.354 68.6338C125.6 69.4717 125.796 70.3284 125.989 71.1843C126.272 72.4434 126.505 73.7063 126.664 74.9805C127.266 79.7998 127.068 84.5884 125.999 89.3296C124.821 94.551 122.719 99.3765 119.673 103.781C117.399 107.071 114.71 109.974 111.583 112.482C110.576 113.288 109.57 114.097 108.492 114.796C107.04 115.738 105.555 116.634 103.994 117.393C102.863 117.942 101.721 118.461 100.547 118.909C99.4841 119.314 98.4047 119.665 97.318 120.005C95.6223 120.537 93.8944 120.908 92.1503 121.206C90.4125 121.501 88.6531 121.62 86.8901 121.706C85.3715 121.781 84.1464 122.442 83.3291 123.77C82.4597 125.18 82.4094 126.698 82.7472 128.26C83.2133 130.418 84.2533 132.312 85.4801 134.115L85.4836 134.12C85.6218 134.324 85.766 134.537 85.5914 134.768C85.4078 135.01 85.174 134.914 84.9536 134.823C84.9347 134.815 84.9159 134.808 84.8972 134.8C84.8137 134.767 84.7356 134.723 84.6538 134.685C82.3457 133.62 80.1104 132.413 77.9146 131.141C75.8857 129.964 73.8937 128.725 71.9592 127.39C68.9694 125.329 66.135 123.077 63.4542 120.634C61.5574 118.906 59.7522 117.08 58.1096 115.104C57.022 113.796 55.946 112.475 54.907 111.127C53.6101 109.446 52.474 107.654 51.4026 105.822C47.7374 99.5518 45.3683 92.8232 44.3785 85.6274C43.6017 79.9802 44.0292 74.4031 45.5784 68.9165C47.1141 63.4785 49.6298 58.532 53.2302 54.1797Z" clip-rule="evenodd" fill="#219436" fill-opacity="1.000000" fill-rule="evenodd"/>
	<path id="image 35 (Traced)" d="M68.36 62.38C67.23 63.4 66.57 64.5 66.13 66.1C65.43 68.65 66.02 71.24 67.74 73.22C68.47 74.05 69.84 75.01 70.81 75.37C72.17 75.87 80.47 78.08 81.07 78.11C83.01 78.19 85.02 76.99 85.87 75.25C86.23 74.5 88.57 65.53 88.64 64.6C88.88 61.58 87.41 58.74 84.8 57.17C83.94 56.65 82.02 56.11 80.99 56.11C80.6 56.11 79.91 56.17 79.46 56.26C78.72 56.39 78.49 56.49 77.32 57.16C76.14 57.84 75.95 57.98 75.4 58.6C75.07 58.97 74.65 59.57 74.45 59.91L74.11 60.55L73.38 60.53C72.15 60.51 71.04 60.81 69.78 61.49C69.18 61.82 68.54 62.22 68.36 62.38ZM92.4 62.65C91.73 63.27 90.75 64.75 90.43 65.61C89.93 66.97 87.71 75.26 87.69 75.86C87.61 77.75 88.76 79.74 90.43 80.62C90.97 80.9 99.26 83.12 100.69 83.37C101.71 83.55 103.38 83.4 104.42 83.04C106.9 82.19 108.7 80.24 109.37 77.69C109.72 76.36 109.77 75.47 109.54 74.25C109.41 73.51 109.31 73.29 108.64 72.11C107.96 70.93 107.82 70.74 107.2 70.2C106.82 69.87 106.23 69.44 105.88 69.25L105.24 68.9L105.26 68.17C105.27 67.77 105.19 67.04 105.09 66.55C104.93 65.75 104.84 65.53 104.16 64.35C103.48 63.18 103.33 62.98 102.76 62.5C101.81 61.7 101.02 61.29 99.7 60.93C98.37 60.56 97.29 60.53 95.97 60.81C94.89 61.04 93.21 61.91 92.4 62.65ZM86.2 83.95C85.15 84.96 85.06 85.2 83.76 90.16C82.38 95.43 82.3 95.82 82.35 97.1C82.47 99.67 83.91 102.05 86.2 103.42C87.06 103.94 88.98 104.47 90.01 104.48C90.4 104.49 91.09 104.42 91.54 104.34C92.28 104.2 92.51 104.11 93.68 103.43C94.86 102.76 95.06 102.61 95.6 102C95.93 101.62 96.36 101.03 96.55 100.68L96.91 100.04L97.62 100.05C98.02 100.05 98.75 99.98 99.24 99.88C100.07 99.73 100.25 99.65 101.45 98.95C102.61 98.27 102.81 98.12 103.3 97.55C104.1 96.61 104.51 95.82 104.87 94.49C105.57 91.95 104.98 89.35 103.26 87.37C102.53 86.54 101.16 85.58 100.19 85.22C99.82 85.09 97.45 84.41 94.91 83.72C89.93 82.35 89.72 82.32 88.27 82.75C87.45 83 86.82 83.37 86.2 83.95Z" fill="#FFFFFF" fill-opacity="1.000000" fill-rule="evenodd"/>
	<path id="image 35 (Traced)" d="M63.92 79.1C62.71 80.22 62.05 81.31 61.63 82.91C61.28 84.24 61.24 85.12 61.46 86.34C61.6 87.08 61.69 87.31 62.36 88.48C63.04 89.66 63.18 89.85 63.8 90.39C64.18 90.72 64.77 91.15 65.12 91.34L65.76 91.69L65.74 92.42C65.74 92.82 65.81 93.55 65.91 94.04C66.07 94.85 66.16 95.06 66.85 96.24C67.52 97.41 67.67 97.61 68.25 98.09C68.6 98.39 69.16 98.8 69.5 98.99C70.39 99.5 72.32 99.99 73.33 99.98C76.38 99.92 79.07 98.2 80.38 95.46C80.77 94.62 83.24 85.68 83.3 84.86C83.44 82.86 82.25 80.8 80.45 79.92C79.72 79.57 70.74 77.23 69.85 77.16C67.65 76.99 65.42 77.72 63.92 79.1Z" fill="#FFFFFF" fill-opacity="0.500000" fill-rule="evenodd"/>
</svg>
