<svg width="214.000000" height="49.835693" viewBox="0 0 214 49.8357" fill="none" xmlns="http://www.w3.org/2000/svg" xmlns:xlink="http://www.w3.org/1999/xlink">
	<desc>
			Created with Pixso.
	</desc>
	<defs/>
	<path id="cloverchat" d="M72.18 33.81L67.93 33.81L67.93 11L72.18 11L72.18 33.81ZM162.16 16.97C163.07 16.97 163.92 17.14 164.71 17.48C165.52 17.79 166.21 18.26 166.78 18.89C167.35 19.49 167.79 20.23 168.11 21.1C168.46 21.97 168.63 22.95 168.63 24.03L168.63 33.81L164.38 33.81L164.38 24.58C164.38 23.49 164.04 22.62 163.38 21.97C162.74 21.29 161.9 20.96 160.87 20.96C159.83 20.96 158.98 21.29 158.31 21.97C157.67 22.62 157.35 23.49 157.35 24.58L157.35 33.81L153.1 33.81L153.1 11L157.35 11L157.35 18.78C157.67 18.44 158.06 18.14 158.5 17.88C158.89 17.66 159.39 17.45 159.98 17.26C160.59 17.07 161.32 16.97 162.16 16.97ZM188.6 13.17L192.3 13.17L192.3 17.15L196 17.15L196 20.96L192.3 20.96L192.3 27.84C192.3 28.56 192.51 29.14 192.93 29.58C193.37 29.99 193.96 30.19 194.7 30.19L195.18 30.19C195.31 30.17 195.42 30.14 195.52 30.12C195.61 30.1 195.71 30.06 195.81 30.01L195.81 33.63C195.64 33.71 195.44 33.77 195.22 33.81Q194.59 34 193.78 34C192.94 34 192.16 33.86 191.45 33.6C190.76 33.31 190.15 32.9 189.64 32.37C189.14 31.83 188.75 31.21 188.45 30.48C188.18 29.76 188.05 28.94 188.05 28.02L188.05 20.96L185.46 20.96L185.46 17.51L186.57 17.51Q187.61 17.51 188.11 17Q188.6 16.5 188.6 15.52L188.6 13.17ZM66.45 27.66C66.25 28.48 65.92 29.27 65.45 30.05C64.98 30.8 64.4 31.47 63.71 32.08C63.02 32.65 62.23 33.13 61.34 33.49Q61.3 33.51 61.25 33.52L61.24 33.53Q59.96 34 58.5 34Q57.28 34 56.16 33.68Q55.67 33.54 55.21 33.34C54.2 32.88 53.3 32.27 52.51 31.5Q52.2 31.18 51.92 30.84Q51.17 29.93 50.66 28.82Q50.52 28.48 50.41 28.14L50.41 28.14Q50 26.88 50 25.48Q50 23.91 50.52 22.53Q50.59 22.36 50.66 22.19Q51.27 20.83 52.22 19.78Q52.36 19.62 52.51 19.47Q53.13 18.86 53.85 18.39L53.85 18.39Q54.49 17.97 55.21 17.66Q55.78 17.41 56.37 17.25L56.37 17.25Q57.4 16.97 58.5 16.97Q59.79 16.97 60.94 17.36L60.94 17.36Q61.15 17.43 61.34 17.51Q62.38 17.91 63.24 18.54L63.24 18.54L63.24 18.54Q63.48 18.73 63.71 18.93C64.4 19.51 64.98 20.18 65.45 20.96C65.92 21.7 66.25 22.49 66.45 23.31L62.2 23.31C62 22.88 61.73 22.49 61.38 22.15C61.09 21.86 60.7 21.6 60.24 21.35Q59.53 20.96 58.5 20.96Q57.46 20.96 56.61 21.36Q55.99 21.66 55.47 22.19Q55.21 22.45 55 22.75Q54.25 23.86 54.25 25.48Q54.25 27.11 55 28.22L55 28.22Q55.21 28.52 55.47 28.78C56.28 29.6 57.29 30.01 58.5 30.01Q59.53 30.01 60.24 29.65C60.7 29.41 61.09 29.14 61.38 28.85C61.73 28.51 62 28.12 62.2 27.66L66.45 27.66ZM90.83 25.48C90.83 26.67 90.6 27.78 90.13 28.82C89.69 29.83 89.07 30.72 88.28 31.5C87.52 32.27 86.62 32.88 85.58 33.34C84.57 33.78 83.49 34 82.33 34C81.17 34 80.07 33.78 79.04 33.34C78.03 32.88 77.13 32.27 76.34 31.5C75.58 30.72 74.96 29.83 74.49 28.82C74.05 27.78 73.83 26.67 73.83 25.48C73.83 24.3 74.05 23.2 74.49 22.19C74.96 21.15 75.58 20.24 76.34 19.47C77.13 18.7 78.03 18.09 79.04 17.66C80.07 17.2 81.17 16.97 82.33 16.97C83.49 16.97 84.57 17.2 85.58 17.66Q86.69 18.12 87.59 18.85Q87.95 19.14 88.28 19.47C89.07 20.24 89.69 21.15 90.13 22.19C90.6 23.2 90.83 24.3 90.83 25.48ZM123.52 28.74C123.3 29.37 122.96 30 122.49 30.63C122.04 31.25 121.49 31.82 120.82 32.33C120.18 32.81 119.44 33.21 118.61 33.52C117.79 33.84 116.91 34 115.94 34C114.79 34 113.69 33.78 112.65 33.34C111.64 32.88 110.74 32.27 109.96 31.5C109.19 30.72 108.58 29.83 108.11 28.82C107.66 27.78 107.44 26.67 107.44 25.48C107.44 24.3 107.66 23.2 108.11 22.19C108.58 21.15 109.19 20.24 109.96 19.47Q110.58 18.86 111.3 18.39Q111.94 17.97 112.65 17.66C113.69 17.2 114.79 16.97 115.94 16.97C117.05 16.97 118.1 17.18 119.09 17.59C120.07 18 120.94 18.58 121.67 19.33Q121.69 19.34 121.7 19.35Q122.79 20.46 123.41 22.04Q124.08 23.6 124.08 25.48C124.08 25.68 124.07 25.87 124.04 26.06L123.97 26.57C123.94 26.76 123.92 26.94 123.89 27.11L112.06 27.11C112.26 27.93 112.68 28.62 113.32 29.18C113.96 29.73 114.84 30.01 115.94 30.01C116.51 30.01 116.98 29.95 117.35 29.83C117.74 29.71 118.08 29.56 118.35 29.39C118.64 29.2 118.89 28.98 119.09 28.74L123.52 28.74ZM133.68 16.97C133.88 16.97 134.05 16.98 134.2 17.01C134.35 17.03 134.48 17.06 134.61 17.08L134.98 17.15L134.98 21.5C134.85 21.47 134.72 21.45 134.57 21.43C134.45 21.4 134.28 21.38 134.09 21.35C133.92 21.33 133.72 21.32 133.5 21.32C132.46 21.32 131.61 21.66 130.95 22.33C130.3 22.98 129.98 23.85 129.98 24.94L129.98 33.81L125.73 33.81L125.73 17.15L128.88 17.15L129.61 18.96C129.91 18.6 130.27 18.28 130.69 17.99C131.03 17.72 131.45 17.49 131.94 17.3C132.46 17.08 133.04 16.97 133.68 16.97ZM151.62 27.66C151.43 28.48 151.09 29.27 150.62 30.05C150.16 30.8 149.58 31.47 148.89 32.08C148.2 32.65 147.41 33.13 146.52 33.49C145.63 33.83 144.69 34 143.67 34C142.52 34 141.42 33.78 140.38 33.34C139.37 32.88 138.47 32.27 137.69 31.5C136.92 30.72 136.31 29.83 135.84 28.82Q135.7 28.48 135.58 28.14Q135.17 26.88 135.17 25.48Q135.17 23.91 135.7 22.53L135.7 22.53Q135.76 22.36 135.84 22.19C136.31 21.15 136.92 20.24 137.69 19.47C138.47 18.7 139.37 18.09 140.38 17.66C141.42 17.2 142.52 16.97 143.67 16.97C144.69 16.97 145.63 17.15 146.52 17.51C147.41 17.85 148.2 18.32 148.89 18.93C149.58 19.51 150.16 20.18 150.62 20.96C151.09 21.7 151.43 22.49 151.62 23.31L147.37 23.31C147.17 22.88 146.9 22.49 146.56 22.15C146.26 21.86 145.88 21.6 145.41 21.35C144.94 21.09 144.36 20.96 143.67 20.96C142.47 20.96 141.46 21.37 140.64 22.19C139.83 23.01 139.42 24.11 139.42 25.48C139.42 26.86 139.83 27.96 140.64 28.78C141.46 29.6 142.47 30.01 143.67 30.01C144.36 30.01 144.94 29.89 145.41 29.65C145.88 29.41 146.26 29.14 146.56 28.85C146.9 28.51 147.17 28.12 147.37 27.66L151.62 27.66ZM178.07 16.97C179.03 16.97 179.92 17.14 180.73 17.48C181.55 17.79 182.25 18.24 182.84 18.82C183.43 19.4 183.89 20.09 184.21 20.88C184.55 21.68 184.73 22.55 184.73 23.49L184.73 33.81L181.58 33.81L180.84 32.18C180.45 32.52 180.02 32.82 179.55 33.09C179.13 33.33 178.63 33.55 178.03 33.74C177.44 33.91 176.78 34 176.04 34C174.19 34 172.77 33.56 171.79 32.69C170.8 31.8 170.31 30.66 170.31 29.29C170.31 28.47 170.47 27.72 170.79 27.04C171.13 26.34 171.7 25.75 172.49 25.27C173.28 24.76 174.31 24.37 175.59 24.11C176.9 23.82 178.53 23.67 180.47 23.67C180.47 22.75 180.22 22.04 179.7 21.54C179.2 21.03 178.54 20.77 177.7 20.77C177.13 20.77 176.68 20.87 176.33 21.06C176.01 21.26 175.75 21.46 175.56 21.68C175.34 21.95 175.19 22.25 175.11 22.59L170.86 22.59C170.96 21.81 171.18 21.09 171.53 20.41C171.9 19.74 172.39 19.14 173.01 18.64C173.62 18.13 174.35 17.73 175.19 17.44C176.05 17.13 177.01 16.97 178.07 16.97ZM107.64 17.15L101.17 33.81L97.1 33.81L90.63 17.15L95.07 17.15L99.13 28.67L103.2 17.15L107.64 17.15ZM78.08 25.48Q78.08 27.11 78.84 28.22Q79.04 28.52 79.3 28.78C80.11 29.6 81.12 30.01 82.33 30.01C83.54 30.01 84.55 29.6 85.36 28.78C86.17 27.96 86.58 26.86 86.58 25.48C86.58 24.11 86.17 23.01 85.36 22.19C84.55 21.37 83.54 20.96 82.33 20.96Q81.29 20.96 80.44 21.36Q79.82 21.66 79.3 22.19Q79.04 22.45 78.84 22.75Q78.08 23.86 78.08 25.48ZM115.94 20.96C114.84 20.96 113.92 21.27 113.21 21.9C112.52 22.53 112.08 23.3 111.88 24.22L120.01 24.22C119.81 23.3 119.36 22.53 118.64 21.9C117.95 21.27 117.05 20.96 115.94 20.96ZM176.78 30.74Q178.16 30.74 179.09 30.08L179.09 30.08Q179.27 29.95 179.44 29.79C180.13 29.14 180.47 28.31 180.47 27.29L180.47 26.57C179.22 26.57 178.21 26.63 177.44 26.75C176.68 26.85 176.07 27 175.63 27.22C175.21 27.41 174.93 27.66 174.78 27.95C174.63 28.24 174.56 28.56 174.56 28.92C174.56 29.38 174.77 29.81 175.19 30.19C175.61 30.55 176.14 30.74 176.78 30.74Z" fill="#1B1B1B" fill-opacity="1.000000" fill-rule="evenodd"/>
	<path id="Union" d="M4.00342 10.7593C7.63379 6.37109 12.3281 4.18384 18.0005 4.0564L18.001 4.0564C19.6997 4.05786 21.3579 4.30688 22.9858 4.76489C23.6733 4.95825 24.3452 5.19653 25.0005 5.48022C28.916 7.17505 31.8867 9.90186 33.9136 13.6553C34.4937 14.7292 34.9429 15.8586 35.2861 17.0283C35.3926 17.3918 35.4775 17.7634 35.5615 18.1345C35.6841 18.6807 35.7856 19.2285 35.8545 19.7812C36.1152 21.8716 36.0293 23.9485 35.5659 26.0049C35.0552 28.2695 34.1431 30.3625 32.8223 32.2729C31.8354 33.6997 30.6694 34.9592 29.313 36.0466C28.8765 36.3965 28.4399 36.7476 27.9727 37.0505C27.3428 37.4592 26.6987 37.8477 26.0215 38.1768C25.5308 38.415 25.0356 38.6401 24.5264 38.8347C24.0654 39.0103 23.5972 39.1621 23.126 39.3098C22.3906 39.5405 21.6411 39.7017 20.8843 39.8306C20.1309 39.9587 19.3677 40.0103 18.603 40.0476C17.9443 40.0801 17.4131 40.3669 17.0586 40.9429C16.6812 41.5544 16.6597 42.2131 16.8062 42.8904C17.0083 43.8262 17.4595 44.6477 17.9912 45.4299L17.9932 45.4321C18.0527 45.5208 18.1152 45.613 18.0396 45.7131C17.96 45.8179 17.8584 45.7761 17.7632 45.7371C17.7549 45.7336 17.7466 45.7302 17.7388 45.7271C17.7021 45.7126 17.6685 45.6936 17.6328 45.6772C16.6318 45.2153 15.6626 44.6917 14.71 44.1396C13.8301 43.6294 12.9658 43.0918 12.127 42.5129C10.8301 41.6191 9.60059 40.6421 8.43799 39.5825C7.61523 38.833 6.83252 38.041 6.12012 37.1841C5.64795 36.6167 5.18164 36.0439 4.73096 35.4592C4.16846 34.73 3.67578 33.9529 3.21094 33.1582C1.62109 30.4385 0.59375 27.52 0.164062 24.3992C-0.172852 21.9497 0.0126953 19.5308 0.68457 17.1511C1.35059 14.7925 2.44189 12.6467 4.00342 10.7593Z" clip-rule="evenodd" fill="#219436" fill-opacity="1.000000" fill-rule="evenodd"/>
	<path id="image 35 (Traced)" d="M10.56 14.31C10.07 14.75 9.79 15.23 9.6 15.93C9.29 17.03 9.55 18.16 10.3 19.01C10.61 19.37 11.21 19.79 11.63 19.95C12.22 20.16 15.81 21.12 16.08 21.14C16.92 21.17 17.79 20.65 18.16 19.89C18.32 19.57 19.33 15.68 19.36 15.28C19.46 13.97 18.83 12.73 17.7 12.05C17.32 11.83 16.49 11.6 16.04 11.59C15.87 11.59 15.57 11.62 15.38 11.66C15.06 11.72 14.96 11.76 14.45 12.05C13.94 12.34 13.85 12.4 13.62 12.67C13.48 12.84 13.29 13.09 13.21 13.24L13.06 13.52L12.74 13.51C12.21 13.5 11.73 13.63 11.18 13.93C10.92 14.07 10.64 14.24 10.56 14.31ZM20.99 14.43C20.7 14.7 20.27 15.34 20.14 15.71C19.92 16.3 18.96 19.9 18.95 20.16C18.91 20.98 19.41 21.84 20.14 22.22C20.37 22.34 23.97 23.31 24.58 23.42C25.03 23.49 25.75 23.43 26.2 23.28C27.28 22.91 28.06 22.06 28.35 20.95C28.5 20.37 28.52 19.99 28.42 19.46C28.37 19.14 28.32 19.04 28.03 18.54C27.74 18.02 27.68 17.94 27.41 17.7C27.25 17.56 26.99 17.38 26.84 17.29L26.56 17.14L26.57 16.83C26.57 16.65 26.54 16.34 26.5 16.12C26.43 15.77 26.39 15.68 26.09 15.17C25.79 14.66 25.73 14.58 25.48 14.36C25.07 14.02 24.73 13.84 24.15 13.68C23.58 13.53 23.11 13.51 22.54 13.63C22.07 13.73 21.34 14.11 20.99 14.43ZM18.3 23.67C17.85 24.11 17.8 24.21 17.24 26.36C16.64 28.65 16.61 28.82 16.63 29.37C16.68 30.49 17.31 31.52 18.3 32.11C18.67 32.34 19.5 32.57 19.95 32.57C20.12 32.58 20.42 32.55 20.62 32.51C20.94 32.45 21.04 32.41 21.55 32.12C22.06 31.83 22.14 31.76 22.38 31.5C22.52 31.33 22.71 31.08 22.79 30.92L22.94 30.65L23.26 30.65C23.43 30.65 23.74 30.62 23.96 30.58C24.31 30.51 24.39 30.48 24.91 30.18C25.42 29.88 25.51 29.82 25.72 29.57C26.07 29.16 26.24 28.82 26.4 28.24C26.7 27.14 26.45 26.01 25.7 25.15C25.39 24.79 24.79 24.38 24.37 24.22C24.21 24.16 23.18 23.87 22.08 23.57C19.92 22.97 19.83 22.96 19.2 23.15C18.84 23.26 18.57 23.42 18.3 23.67Z" fill="#FFFFFF" fill-opacity="1.000000" fill-rule="evenodd"/>
	<path id="image 35 (Traced)" d="M8.64 21.56C8.11 22.05 7.82 22.52 7.64 23.22C7.49 23.79 7.47 24.18 7.57 24.71C7.63 25.03 7.67 25.12 7.96 25.63C8.26 26.15 8.32 26.23 8.59 26.46C8.75 26.61 9.01 26.79 9.16 26.88L9.43 27.03L9.43 27.34C9.42 27.52 9.46 27.83 9.5 28.05C9.57 28.39 9.61 28.49 9.91 29C10.2 29.51 10.27 29.59 10.51 29.8C10.67 29.93 10.91 30.11 11.06 30.19C11.44 30.41 12.28 30.63 12.72 30.62C14.04 30.6 15.21 29.85 15.77 28.66C15.95 28.3 17.02 24.42 17.04 24.06C17.1 23.2 16.59 22.3 15.81 21.92C15.49 21.77 11.6 20.75 11.21 20.72C10.26 20.65 9.29 20.97 8.64 21.56Z" fill="#FFFFFF" fill-opacity="0.500000" fill-rule="evenodd"/>
</svg>
