<svg width="36.000000" height="41.722900" viewBox="0 0 36 41.7229" fill="none"
	xmlns="http://www.w3.org/2000/svg" xmlns:xlink="http://www.w3.org/1999/xlink">
	<desc>
		Created with Pixso.
	</desc>
	<defs />
	<path id="Union"
		d="M4.00342 6.70288C7.63379 2.3147 12.3281 0.127441 18.0005 0L18.001 0C19.6997 0.00146484 21.3579 0.250488 22.9858 0.708496C23.6733 0.901855 24.3452 1.14014 25.0005 1.42383C28.916 3.11865 31.8867 5.84546 33.9136 9.59888C34.4937 10.6729 34.9429 11.8022 35.2861 12.9719C35.3926 13.3354 35.4775 13.707 35.5615 14.0781C35.6841 14.6243 35.7856 15.1721 35.8545 15.7249C36.1152 17.8152 36.0293 19.8921 35.5659 21.9485C35.0552 24.2131 34.1431 26.3062 32.8223 28.2166C31.8354 29.6433 30.6694 30.9028 29.313 31.9902C28.8765 32.3401 28.4399 32.6912 27.9727 32.9941C27.3428 33.4028 26.6987 33.7913 26.0215 34.1204C25.5308 34.3586 25.0356 34.5837 24.5264 34.7783C24.0654 34.9539 23.5972 35.1057 23.126 35.2534C22.3906 35.4841 21.6411 35.6453 20.8843 35.7742C20.1309 35.9023 19.3677 35.9539 18.603 35.9912C17.9443 36.0237 17.4131 36.3105 17.0586 36.8865C16.6812 37.498 16.6597 38.1567 16.8062 38.834C17.0083 39.7698 17.4595 40.5913 17.9912 41.3735L17.9932 41.3757C18.0527 41.4644 18.1152 41.5566 18.0396 41.6567C17.96 41.7615 17.8584 41.7197 17.7632 41.6807C17.7549 41.6772 17.7466 41.6738 17.7388 41.6707C17.7021 41.6562 17.6685 41.6372 17.6328 41.6208C16.6318 41.1589 15.6626 40.6353 14.71 40.0833C13.8301 39.573 12.9658 39.0354 12.127 38.4565C10.8301 37.5627 9.60059 36.5857 8.43799 35.5261C7.61523 34.7766 6.83252 33.9846 6.12012 33.1277C5.64795 32.5603 5.18164 31.9875 4.73096 31.4028C4.16846 30.6736 3.67578 29.8965 3.21094 29.1018C1.62109 26.3821 0.59375 23.4636 0.164062 20.3428C-0.172852 17.8933 0.0126953 15.4744 0.68457 13.0947C1.35059 10.7361 2.44189 8.59033 4.00342 6.70288Z"
		clip-rule="evenodd" fill="#219436" fill-opacity="1.000000" fill-rule="evenodd" />
	<path id="image 35 (Traced)"
		d="M10.56 10.26C10.07 10.7 9.79 11.17 9.6 11.87C9.29 12.97 9.55 14.1 10.3 14.96C10.61 15.32 11.21 15.73 11.63 15.89C12.22 16.11 15.81 17.07 16.08 17.08C16.92 17.11 17.79 16.59 18.16 15.84C18.32 15.51 19.33 11.62 19.36 11.22C19.46 9.91 18.83 8.68 17.7 8C17.32 7.77 16.49 7.54 16.04 7.54C15.87 7.54 15.57 7.56 15.38 7.6C15.06 7.66 14.96 7.7 14.45 7.99C13.94 8.29 13.85 8.35 13.62 8.62C13.48 8.78 13.29 9.04 13.21 9.19L13.06 9.46L12.74 9.46C12.21 9.45 11.73 9.57 11.18 9.87C10.92 10.01 10.64 10.18 10.56 10.26ZM20.99 10.38C20.7 10.64 20.27 11.28 20.14 11.66C19.92 12.25 18.96 15.84 18.95 16.11C18.91 16.92 19.41 17.79 20.14 18.17C20.37 18.29 23.97 19.25 24.58 19.36C25.03 19.44 25.75 19.37 26.2 19.22C27.28 18.85 28.06 18 28.35 16.9C28.5 16.32 28.52 15.93 28.42 15.41C28.37 15.09 28.32 14.99 28.03 14.48C27.74 13.97 27.68 13.88 27.41 13.65C27.25 13.5 26.99 13.32 26.84 13.24L26.56 13.08L26.57 12.77C26.57 12.6 26.54 12.28 26.5 12.07C26.43 11.72 26.39 11.62 26.09 11.11C25.79 10.6 25.73 10.52 25.48 10.31C25.07 9.96 24.73 9.78 24.15 9.63C23.58 9.47 23.11 9.45 22.54 9.58C22.07 9.68 21.34 10.05 20.99 10.38ZM18.3 19.61C17.85 20.05 17.8 20.15 17.24 22.3C16.64 24.59 16.61 24.76 16.63 25.31C16.68 26.43 17.31 27.46 18.3 28.06C18.67 28.28 19.5 28.51 19.95 28.52C20.12 28.52 20.42 28.49 20.62 28.46C20.94 28.4 21.04 28.35 21.55 28.06C22.06 27.77 22.14 27.71 22.38 27.44C22.52 27.28 22.71 27.02 22.79 26.87L22.94 26.59L23.26 26.59C23.43 26.6 23.74 26.56 23.96 26.52C24.31 26.46 24.39 26.42 24.91 26.12C25.42 25.83 25.51 25.76 25.72 25.51C26.07 25.1 26.24 24.76 26.4 24.18C26.7 23.08 26.45 21.95 25.7 21.1C25.39 20.74 24.79 20.32 24.37 20.16C24.21 20.11 23.18 19.81 22.08 19.51C19.92 18.92 19.83 18.9 19.2 19.09C18.84 19.2 18.57 19.36 18.3 19.61Z"
		fill="#FFFFFF" fill-opacity="1.000000" fill-rule="evenodd" />
	<path id="image 35 (Traced)"
		d="M8.64 17.51C8.11 17.99 7.82 18.47 7.64 19.16C7.49 19.74 7.47 20.12 7.57 20.65C7.63 20.97 7.67 21.07 7.96 21.58C8.26 22.09 8.32 22.17 8.59 22.41C8.75 22.55 9.01 22.74 9.16 22.82L9.43 22.97L9.43 23.29C9.42 23.46 9.46 23.78 9.5 23.99C9.57 24.34 9.61 24.43 9.91 24.94C10.2 25.45 10.27 25.54 10.51 25.75C10.67 25.88 10.91 26.05 11.06 26.14C11.44 26.36 12.28 26.57 12.72 26.56C14.04 26.54 15.21 25.79 15.77 24.6C15.95 24.24 17.02 20.36 17.04 20C17.1 19.14 16.59 18.24 15.81 17.87C15.49 17.71 11.6 16.7 11.21 16.67C10.26 16.59 9.29 16.91 8.64 17.51Z"
		fill="#FFFFFF" fill-opacity="0.500000" fill-rule="evenodd" />
</svg>