<svg width="8.000000" height="16.000000" viewBox="0 0 8 16" fill="none" xmlns="http://www.w3.org/2000/svg" xmlnsXlink="http://www.w3.org/1999/xlink">
	<desc>
			Created with Pixso.
	</desc>
	<defs>
		<clipPath id="clip2001_617">
			<rect id="more_vertical_16" rx="0.000000" width="7.000000" height="15.000000" transform="translate(0.500000 0.500000)" fill="white" fillOpacity="0"/>
		</clipPath>
	</defs>
	<g clipPath="url(#clip2001_617)">
		<path id="↳ Icon Color" d="M4 4.5C4.82 4.5 5.5 3.82 5.5 3C5.5 2.17 4.82 1.5 4 1.5C3.17 1.5 2.5 2.17 2.5 3C2.5 3.82 3.17 4.5 4 4.5ZM4 6.5C3.17 6.5 2.5 7.17 2.5 8C2.5 8.82 3.17 9.5 4 9.5C4.82 9.5 5.5 8.82 5.5 8C5.5 7.17 4.82 6.5 4 6.5ZM4 11.5C3.17 11.5 2.5 12.17 2.5 13C2.5 13.82 3.17 14.5 4 14.5C4.82 14.5 5.5 13.82 5.5 13C5.5 12.17 4.82 11.5 4 11.5Z" fill="#B8C1CC" fill-opacity="1.000000" fill-rule="nonzero"/>
	</g>
</svg>
