<svg width="22.000000" height="22.000000" viewBox="0 0 22 22" fill="none" xmlns="http://www.w3.org/2000/svg" xmlnsXlink="http://www.w3.org/1999/xlink">
	<desc>
			Created with Pixso.
	</desc>
	<defs/>
	<path id="↳ Icon Color" d="M10.5 19.12C9.23 19.12 8.25 18.46 8.25 17.25L12.75 17.25C12.75 18.46 11.76 19.12 10.5 19.12ZM16.12 12.75C16.12 14.25 18 14.62 18 15.37C18 16.12 17.62 16.5 16.12 16.5L4.87 16.5C3.37 16.5 3 16.12 3 15.37C3 14.62 4.87 14.25 4.87 12.75L4.87 9.75C4.87 6 6.75 3 9.75 3C9.75 2.43 10.12 2.25 10.5 2.25C10.87 2.25 11.25 2.43 11.25 3C14.25 3 16.12 6 16.12 9.75L16.12 12.75Z" fill="#191F31" fill-opacity="1.000000" fill-rule="evenodd"/>
</svg>
