<svg width="20" height="20" viewBox="0 0 20 20" fill="none" xmlns="http://www.w3.org/2000/svg" xmlns:xlink="http://www.w3.org/1999/xlink">
	<desc>
			Created with Pixso.
	</desc>
	<defs>
		<clipPath id="clip71_328">
			<rect id="Frame" rx="-0.500000" width="19.000000" height="19.000000" transform="translate(0.500000 0.500000)" fill="white" fill-opacity="0"/>
		</clipPath>
	</defs>
	<rect id="Frame" rx="-0.500000" width="19.000000" height="19.000000" transform="translate(0.500000 0.500000)" fill="#FFFFFF" fill-opacity="0"/>
	<g clip-path="url(#clip71_328)">
		<path id="Vector" d="M9.99 12.67C8.54 12.67 7.36 11.49 7.36 10.04C7.36 8.58 8.54 7.4 9.99 7.4C11.45 7.4 12.63 8.58 12.63 10.04C12.63 11.49 11.45 12.67 9.99 12.67Z" stroke="#191F31" stroke-opacity="1.000000" stroke-width="1.500000" stroke-linejoin="round"/>
		<path id="Vector" d="M17.7 10.04C16.07 6.24 13.17 3.95 9.99 3.95L10 3.95C6.82 3.95 3.92 6.24 2.29 10.04C3.92 13.84 6.82 16.12 10 16.12L9.99 16.12C13.17 16.12 16.07 13.84 17.7 10.04Z" stroke="#191F31" stroke-opacity="1.000000" stroke-width="1.500000" stroke-linejoin="round"/>
	</g>
</svg>
