<svg width="31.000000" height="41.333374" viewBox="0 0 31 41.3334" fill="none" xmlns="http://www.w3.org/2000/svg" xmlns:xlink="http://www.w3.org/1999/xlink">
	<desc>
			Created with Pixso.
	</desc>
	<defs>
		<clipPath id="clip2014_495">
			<rect id="pdf" rx="0.000000" width="29.851852" height="40.185184" transform="translate(0.574074 0.574074)" fill="white" fill-opacity="0"/>
		</clipPath>
	</defs>
	<rect id="pdf" rx="0.000000" width="29.851852" height="40.185184" transform="translate(0.574074 0.574074)" fill="#FFFFFF" fill-opacity="0"/>
	<g clip-path="url(#clip2014_495)">
		<path id="Vector" d="M21.98 0L1.04 0C0.46 0 -0.01 0.48 -0.01 1.42L-0.01 40.59C-0.01 40.84 0.46 41.33 1.04 41.33L29.95 41.33C30.53 41.33 31 40.84 31 40.59L31 9.57C31 9.06 30.94 8.89 30.82 8.77L22.42 0.18C22.31 0.06 22.14 0 21.98 0Z" fill="#F15642" fill-opacity="1.000000" fill-rule="nonzero"/>
		<path id="Vector" d="M29.95 41.33L1.04 41.33C0.46 41.33 -0.01 40.84 -0.01 40.25L-0.01 28.78L31 28.78L31 40.25C31 40.84 30.53 41.33 29.95 41.33Z" fill="#E5252A" fill-opacity="1.000000" fill-rule="nonzero"/>
		<path id=".pdf" d="M25.6 33.5L25.6 38L26.67 38L26.67 33.5L28.08 33.5L28.08 32.55L26.67 32.55L26.67 32.12Q26.67 31.82 26.74 31.61C26.79 31.46 26.87 31.36 26.99 31.29C27.11 31.21 27.28 31.17 27.49 31.17L28.08 31.17L28.08 30.23L27.37 30.23C26.95 30.23 26.61 30.3 26.35 30.42C26.09 30.54 25.9 30.74 25.78 31C25.66 31.25 25.6 31.59 25.6 32L25.6 32.55L24.74 32.55L24.74 33.5L25.6 33.5ZM20.98 38.06Q20.17 38.06 19.63 37.7Q19.47 37.58 19.33 37.45L19.33 37.45Q19.02 37.13 18.83 36.69Q18.57 36.06 18.57 35.28Q18.57 34.48 18.84 33.85C19.02 33.42 19.29 33.09 19.66 32.85C20.02 32.6 20.49 32.48 21.04 32.48C21.25 32.48 21.46 32.5 21.66 32.55C21.88 32.6 22.07 32.67 22.25 32.78Q22.38 32.84 22.49 32.93Q22.62 33.04 22.73 33.17L22.73 30.69L23.79 30.69L23.79 38L22.77 38L22.73 37.25C22.6 37.44 22.45 37.59 22.26 37.72C22.08 37.83 21.88 37.92 21.66 37.97C21.44 38.03 21.22 38.06 20.98 38.06ZM12.46 32.55L12.46 39.98L13.53 39.98L13.53 37.35C13.65 37.5 13.79 37.63 13.95 37.74Q14.2 37.89 14.52 37.97Q14.85 38.06 15.24 38.06Q16.07 38.06 16.61 37.7Q16.82 37.55 16.99 37.37L16.99 37.37Q17.26 37.09 17.41 36.7Q17.68 36.07 17.68 35.27Q17.68 34.48 17.42 33.85Q17.24 33.38 16.9 33.07L16.9 33.07L16.9 33.07Q16.78 32.95 16.64 32.85Q16.11 32.48 15.29 32.48Q14.84 32.48 14.43 32.63L14.43 32.63Q14.36 32.66 14.28 32.69Q14.06 32.79 13.88 32.94L13.88 32.94L13.88 32.94Q13.68 33.1 13.53 33.32L13.48 32.55L12.46 32.55ZM16 36.86Q15.67 37.11 15.11 37.11Q14.57 37.11 14.21 36.87C13.98 36.71 13.8 36.49 13.68 36.22Q13.52 35.79 13.52 35.29Q13.52 34.79 13.69 34.37Q13.69 34.37 13.69 34.37C13.82 34.09 14 33.86 14.23 33.7Q14.28 33.66 14.33 33.63L14.33 33.63Q14.65 33.44 15.09 33.44Q15.65 33.44 15.98 33.7C16.2 33.86 16.37 34.09 16.46 34.37Q16.62 34.78 16.62 35.29C16.62 35.61 16.57 35.91 16.47 36.19C16.38 36.46 16.22 36.69 16 36.86ZM21.16 37.11Q21.67 37.11 22 36.86Q22.01 36.86 22.03 36.85Q22.14 36.76 22.24 36.66Q22.43 36.45 22.55 36.17Q22.55 36.16 22.55 36.16Q22.73 35.74 22.73 35.25Q22.73 34.74 22.55 34.34C22.44 34.06 22.27 33.84 22.04 33.69Q21.69 33.44 21.16 33.44Q20.6 33.44 20.27 33.7C20.05 33.86 19.89 34.09 19.78 34.37Q19.64 34.79 19.64 35.3C19.64 35.55 19.67 35.78 19.72 36Q19.8 36.31 19.97 36.57Q19.97 36.57 19.98 36.58Q20.04 36.65 20.1 36.72Q20.25 36.87 20.45 36.97Q20.74 37.11 21.16 37.11ZM10.1 38.02Q10.26 38.1 10.46 38.1Q10.65 38.1 10.8 38.02Q10.89 37.97 10.96 37.9C11.1 37.77 11.16 37.6 11.16 37.39C11.16 37.17 11.1 37 10.96 36.87Q10.88 36.78 10.77 36.73Q10.64 36.66 10.46 36.66Q10.3 36.66 10.16 36.72L10.16 36.72Q10.05 36.77 9.96 36.87C9.82 37 9.75 37.17 9.75 37.39C9.75 37.6 9.81 37.77 9.95 37.9Q10.02 37.97 10.1 38.02Z" fill="#FFFFFF" fill-opacity="1.000000" fill-rule="evenodd"/>
		<path id="Vector" d="M22.35 0.11L22.35 8.85L30.89 8.85L22.35 0.11Z" fill="#FF9587" fill-opacity="1.000000" fill-rule="nonzero"/>
	</g>
</svg>
