<svg width="16.960266" height="16.960266" viewBox="0 0 16.9603 16.9603" fill="none" xmlns="http://www.w3.org/2000/svg" xmlnsXlink="http://www.w3.org/1999/xlink">
	<defs/>
	<path id="↳ Icon Color" d="M15.02 0.69L16.26 1.93C17.19 2.85 17.19 4.34 16.26 5.26L14.14 7.39L5.61 15.92C4.95 16.58 4.05 16.96 3.11 16.96L1.61 16.96C0.72 16.96 0 16.23 0 15.34L0 13.84C0 12.9 0.37 12 1.03 11.34L9.56 2.81L9.56 2.81L11.69 0.69C12.61 -0.24 14.1 -0.24 15.02 0.69ZM10.6 3.99L2.14 12.45C1.77 12.82 1.57 13.32 1.57 13.84L1.57 15.34C1.57 15.37 1.58 15.38 1.61 15.38L3.11 15.38C3.63 15.38 4.13 15.18 4.5 14.81L12.96 6.35L10.6 3.99ZM12.8 1.8L11.78 2.81L14.14 5.17L15.15 4.15C15.46 3.85 15.46 3.35 15.15 3.04L13.91 1.8C13.6 1.49 13.1 1.49 12.8 1.8Z" fill="currentColor" fillOpacity="1.000000" fillRule="nonzero"/>
</svg>
