<svg width="19.708313" height="19.708252" viewBox="0 0 19.7083 19.7083" fill="currentColor"
	xmlns="http://www.w3.org/2000/svg" xmlns:xlink="http://www.w3.org/1999/xlink">
	<desc>
		Created with Pixso.
	</desc>
	<defs />
	<path id="Vector"
		d="M9.8 0L9.9 0C12.02 0 13.68 0 14.97 0.17C16.29 0.35 17.34 0.72 18.16 1.54C18.98 2.36 19.35 3.4 19.53 4.73C19.7 6.02 19.7 7.68 19.7 9.8L19.7 9.9C19.7 12.02 19.7 13.68 19.53 14.97C19.35 16.29 18.98 17.34 18.16 18.16C17.34 18.98 16.29 19.35 14.97 19.53C13.68 19.7 12.02 19.7 9.9 19.7L9.8 19.7C7.68 19.7 6.02 19.7 4.73 19.53C3.4 19.35 2.36 18.98 1.54 18.16C0.72 17.34 0.35 16.29 0.17 14.97C0 13.68 0 12.02 0 9.9L0 9.8C0 7.68 0 6.02 0.17 4.73C0.35 3.4 0.72 2.36 1.54 1.54C2.36 0.72 3.4 0.35 4.73 0.17C6.02 0 7.68 0 9.8 0ZM4.91 1.53C3.74 1.69 3.03 1.99 2.51 2.51C1.99 3.03 1.69 3.74 1.53 4.91C1.37 6.1 1.37 7.67 1.37 9.85C1.37 12.03 1.37 13.6 1.53 14.79C1.69 15.96 1.99 16.66 2.51 17.19C3.03 17.71 3.74 18.01 4.91 18.17C6.1 18.33 7.67 18.33 9.85 18.33C12.03 18.33 13.6 18.33 14.79 18.17C15.96 18.01 16.67 17.71 17.19 17.19C17.71 16.66 18.01 15.96 18.17 14.79C18.33 13.6 18.33 12.03 18.33 9.85C18.33 7.67 18.33 6.1 18.17 4.91C18.01 3.74 17.71 3.03 17.19 2.51C16.67 1.99 15.96 1.69 14.79 1.53C13.6 1.37 12.03 1.37 9.85 1.37C7.67 1.37 6.1 1.37 4.91 1.53ZM8.49 4.77C8.76 5.03 8.78 5.46 8.51 5.74L5.89 8.49C5.76 8.63 5.58 8.7 5.4 8.7C5.21 8.7 5.03 8.63 4.9 8.49L3.85 7.39C3.59 7.12 3.6 6.68 3.88 6.42C4.15 6.16 4.59 6.17 4.85 6.44L5.4 7.02L7.52 4.79C7.78 4.52 8.22 4.51 8.49 4.77ZM10.08 7.1C10.08 6.72 10.39 6.41 10.77 6.41L15.35 6.41C15.73 6.41 16.04 6.72 16.04 7.1C16.04 7.48 15.73 7.79 15.35 7.79L10.77 7.79C10.39 7.79 10.08 7.48 10.08 7.1ZM8.49 11.18C8.76 11.45 8.78 11.88 8.51 12.16L5.89 14.91C5.76 15.04 5.58 15.12 5.4 15.12C5.21 15.12 5.03 15.04 4.9 14.91L3.85 13.81C3.59 13.53 3.6 13.1 3.88 12.83C4.15 12.57 4.59 12.58 4.85 12.86L5.4 13.44L7.52 11.21C7.78 10.93 8.22 10.92 8.49 11.18ZM10.08 13.52C10.08 13.14 10.39 12.83 10.77 12.83L15.35 12.83C15.73 12.83 16.04 13.14 16.04 13.52C16.04 13.9 15.73 14.2 15.35 14.2L10.77 14.2C10.39 14.2 10.08 13.9 10.08 13.52Z"
		fill="currentColor" fill-opacity="1.000000" fill-rule="evenodd" />
</svg>