<svg width="82.000000" height="82.000000" viewBox="0 0 82 82" fill="none" xmlns="http://www.w3.org/2000/svg" xmlns:xlink="http://www.w3.org/1999/xlink">
	<desc>
			Created with Pixso.
	</desc>
	<defs/>
	<circle id="Ellipse 31" cx="41.000000" cy="41.000000" r="41.000000" fill="#2AA1DA" fill-opacity="1.000000"/>
	<path id="Shape 933 copy" d="M50.96 51.08C50.93 51.48 50.77 51.85 50.52 52.16C50.27 52.47 49.93 52.69 49.55 52.8C49.16 52.92 48.75 52.91 48.37 52.79C47.99 52.67 47.66 52.44 47.41 52.13C45.23 50.41 41.84 47.93 41.84 47.93C41.84 47.93 39.38 52.23 38.94 52.68C38.8 52.8 38.63 52.89 38.45 52.94C38.27 52.99 38.08 53.01 37.89 52.98C37.7 52.96 37.52 52.89 37.36 52.8C37.19 52.7 37.06 52.57 36.95 52.41C36.93 52.34 36.9 52.28 36.87 52.21L38.25 45.35L48.07 35.74L34.67 43.35C34.67 43.35 28.62 41.55 27.72 41.2C27.49 41.07 27.3 40.88 27.17 40.66C27.04 40.43 26.98 40.16 27 39.9C27.01 39.64 27.1 39.39 27.25 39.17C27.41 38.96 27.62 38.79 27.86 38.69C29.14 38.04 51.68 29.47 52.44 29.25C53.2 29.03 55.2 28.45 54.98 30.39C54.76 32.32 51.18 50.02 50.96 51.08Z" fill="#FFFFFF" fill-opacity="1.000000" fill-rule="evenodd"/>
</svg>
