<svg width="31.000000" height="41.333374" viewBox="0 0 31 41.3334" fill="none" xmlns="http://www.w3.org/2000/svg" xmlns:xlink="http://www.w3.org/1999/xlink">
	<desc>
			Created with Pixso.
	</desc>
	<defs>
		<filter id="filter_2014_527_dd" x="-4.007233" y="0.000000" width="39.014435" height="49.333374" filterUnits="userSpaceOnUse" color-interpolation-filters="sRGB">
			<feFlood flood-opacity="0" result="BackgroundImageFix"/>
			<feColorMatrix in="SourceAlpha" type="matrix" values="0 0 0 0 0 0 0 0 0 0 0 0 0 0 0 0 0 0 127 0" result="hardAlpha"/>
			<feOffset dx="0" dy="4"/>
			<feGaussianBlur stdDeviation="1.33333"/>
			<feComposite in2="hardAlpha" operator="out" k2="-1" k3="1"/>
			<feColorMatrix type="matrix" values="0 0 0 0 0 0 0 0 0 0 0 0 0 0 0 0 0 0 0.25 0"/>
			<feBlend mode="normal" in2="BackgroundImageFix" result="effect_dropShadow_1"/>
			<feBlend mode="normal" in="SourceGraphic" in2="effect_dropShadow_1" result="shape"/>
		</filter>
		<clipPath id="clip2014_526">
			<rect id="txt" rx="0.000000" width="29.851852" height="40.185184" transform="translate(0.574074 0.574074)" fill="white" fill-opacity="0"/>
		</clipPath>
	</defs>
	<rect id="txt" rx="0.000000" width="29.851852" height="40.185184" transform="translate(0.574074 0.574074)" fill="#FFFFFF" fill-opacity="0"/>
	<g clip-path="url(#clip2014_526)">
		<g filter="url(#filter_2014_527_dd)">
			<path id="Vector" d="M21.98 0L1.04 0C0.46 0 -0.01 0.48 -0.01 1.42L-0.01 40.59C-0.01 40.84 0.46 41.33 1.04 41.33L29.95 41.33C30.53 41.33 31 40.84 31 40.59L31 9.57C31 9.06 30.94 8.89 30.82 8.77L22.42 0.18C22.31 0.06 22.14 0 21.98 0Z" fill="#D8DFE3" fill-opacity="1.000000" fill-rule="nonzero"/>
			<path id="Vector" d="M29.95 41.33L1.04 41.33C0.46 41.33 -0.01 40.84 -0.01 40.25L-0.01 28.78L31 28.78L31 40.25C31 40.84 30.53 41.33 29.95 41.33Z" fill="#AFBDC7" fill-opacity="1.000000" fill-rule="nonzero"/>
			<path id=".txt" d="M17.08 37.82Q17.49 38 18.13 38L18.7 38L18.7 37.05L18.27 37.05Q17.71 37.05 17.54 36.82Q17.36 36.57 17.36 36.08L17.36 33.5L18.74 33.5L18.74 32.55L17.36 32.55L17.36 30.98L16.3 30.98L16.3 32.55L15.44 32.55L15.44 33.5L16.3 33.5L16.3 36.22Q16.3 36.85 16.48 37.24Q16.58 37.43 16.72 37.57L16.72 37.57Q16.87 37.72 17.08 37.82ZM26.38 37.82Q26.78 38 27.42 38L27.99 38L27.99 37.05L27.57 37.05C27.19 37.05 26.95 36.98 26.83 36.82Q26.66 36.57 26.66 36.08L26.66 33.5L28.03 33.5L28.03 32.55L26.66 32.55L26.66 30.98L25.59 30.98L25.59 32.55L24.74 32.55L24.74 33.5L25.59 33.5L25.59 36.22Q25.59 36.85 25.78 37.24C25.91 37.5 26.11 37.7 26.38 37.82ZM19.11 38L21.04 35.22L19.2 32.55L20.48 32.55L21.76 34.5L23 32.55L24.23 32.55L22.4 35.25L24.36 38L23.1 38L21.69 36.01L20.31 38L19.11 38ZM13.47 38.02Q13.63 38.1 13.83 38.1Q14.02 38.1 14.17 38.02Q14.26 37.97 14.33 37.9Q14.39 37.84 14.44 37.77Q14.54 37.6 14.54 37.39C14.54 37.17 14.47 37 14.33 36.87Q14.25 36.78 14.15 36.73Q14.01 36.66 13.83 36.66Q13.67 36.66 13.53 36.72L13.53 36.72Q13.42 36.77 13.33 36.87C13.19 37 13.12 37.17 13.12 37.39Q13.12 37.62 13.23 37.79Q13.26 37.85 13.32 37.9Q13.39 37.97 13.47 38.02Z" fill="#FFFFFF" fill-opacity="1.000000" fill-rule="evenodd"/>
			<path id="Vector" d="M22.35 0.11L22.35 8.85L30.89 8.85L22.35 0.11Z" fill="#AFBDC7" fill-opacity="1.000000" fill-rule="nonzero"/>
		</g>
	</g>
</svg>
