<svg width="19.708313" height="19.708252" viewBox="0 0 19.7083 19.7083" fill="none"
	xmlns="http://www.w3.org/2000/svg" xmlns:xlink="http://www.w3.org/1999/xlink">
	<desc>
		Created with Pixso.
	</desc>
	<defs />
	<path id="Vector"
		d="M9.85 0C9.29 0 8.78 0.13 8.23 0.36C7.69 0.59 7.06 0.92 6.28 1.33L4.38 2.32C3.43 2.82 2.66 3.22 2.07 3.62C1.45 4.03 0.98 4.46 0.64 5.05C0.29 5.63 0.14 6.26 0.07 7.01C0 7.74 0 8.63 0 9.76L0 9.94C0 11.07 0 11.96 0.07 12.69C0.14 13.44 0.29 14.07 0.64 14.65C0.98 15.24 1.45 15.67 2.07 16.08C2.66 16.47 3.43 16.88 4.38 17.38L6.28 18.37C7.06 18.78 7.69 19.11 8.23 19.33C8.78 19.57 9.29 19.7 9.85 19.7C10.4 19.7 10.91 19.57 11.47 19.33C12.01 19.11 12.64 18.78 13.42 18.37L15.31 17.38C16.27 16.88 17.04 16.47 17.63 16.08C18.24 15.67 18.72 15.24 19.06 14.65C19.4 14.07 19.56 13.44 19.63 12.69C19.7 11.96 19.7 11.07 19.7 9.94L19.7 9.76C19.7 8.63 19.7 7.74 19.63 7.01C19.56 6.26 19.4 5.63 19.06 5.05C18.72 4.46 18.24 4.03 17.63 3.62C17.04 3.22 16.27 2.82 15.31 2.32L13.42 1.33C12.64 0.92 12.01 0.59 11.47 0.36C10.91 0.13 10.4 0 9.85 0ZM6.89 2.56C7.7 2.13 8.28 1.83 8.75 1.63C9.21 1.44 9.54 1.37 9.85 1.37C10.16 1.37 10.49 1.44 10.95 1.63C11.42 1.83 11.99 2.13 12.81 2.56L14.64 3.52C15.64 4.04 16.34 4.41 16.87 4.76C17.13 4.94 17.33 5.1 17.49 5.26L9.85 9.08L2.2 5.26C2.37 5.1 2.57 4.94 2.83 4.76C3.36 4.41 4.06 4.04 5.06 3.52L6.89 2.56ZM1.54 6.46C1.5 6.66 1.46 6.88 1.44 7.14C1.37 7.8 1.37 8.62 1.37 9.8L1.37 9.9C1.37 11.07 1.37 11.9 1.44 12.56C1.5 13.19 1.62 13.61 1.82 13.96C2.03 14.3 2.32 14.59 2.83 14.93C3.36 15.28 4.06 15.65 5.06 16.18L6.89 17.14C7.7 17.57 8.28 17.87 8.75 18.06C8.9 18.13 9.04 18.18 9.16 18.21L9.16 10.27L1.54 6.46ZM10.54 18.21C10.66 18.18 10.8 18.13 10.95 18.06C11.42 17.87 11.99 17.57 12.81 17.14L14.64 16.18C15.64 15.65 16.34 15.28 16.87 14.93C17.38 14.59 17.67 14.3 17.88 13.96C18.08 13.61 18.2 13.19 18.26 12.56C18.33 11.9 18.33 11.07 18.33 9.9L18.33 9.8C18.33 8.62 18.33 7.8 18.26 7.14C18.24 6.88 18.2 6.66 18.16 6.46L10.54 10.27L10.54 18.21Z"
		fill="currentColor" fillOpacity="1.000000" fillRule="evenodd" />
</svg>