<svg width="82.000000" height="82.000000" viewBox="0 0 82 82" fill="none" xmlns="http://www.w3.org/2000/svg" xmlns:xlink="http://www.w3.org/1999/xlink">
	<desc>
			Created with Pixso.
	</desc>
	<defs>
		<linearGradient x1="0.000000" y1="41.000000" x2="105.500000" y2="41.000000" id="paint_linear_2010_269_0" gradientUnits="userSpaceOnUse">
			<stop stop-color="#EA3ACB"/>
			<stop offset="1.000000" stop-color="#7002FC"/>
		</linearGradient>
	</defs>
	<circle id="Ellipse 31" cx="41.000000" cy="41.000000" r="41.000000" fill="url(#paint_linear_2010_269_0)" fill-opacity="1.000000"/>
	<path id="WB" d="M16.54 31L22.12 52.21L26.77 52.21L31.09 34.36L35.41 52.21L40.03 52.21L45.58 31L42.19 31L37.75 49.15L33.43 31L28.9 31L24.55 49.15L20.11 31L16.54 31ZM48.38 31L48.38 52.21L55.97 52.21C57.13 52.21 58.22 52.11 59.24 51.91C60.26 51.71 61.16 51.38 61.94 50.92C62.72 50.46 63.33 49.83 63.77 49.03Q64.43 47.83 64.43 46.03C64.43 44.63 64.1 43.5 63.44 42.64Q63.3 42.45 63.15 42.29Q62.21 41.29 60.59 40.93C61.53 40.53 62.23 39.93 62.69 39.13C63.15 38.31 63.38 37.39 63.38 36.37C63.38 35.33 63.21 34.47 62.87 33.79C62.55 33.09 62.08 32.54 61.46 32.14C60.84 31.72 60.1 31.43 59.24 31.27C58.4 31.09 57.47 31 56.45 31L48.38 31ZM55.58 40.09L51.56 40.09L51.56 33.88L56.21 33.88Q57.32 33.88 58.25 34.09C58.87 34.21 59.36 34.47 59.72 34.87Q60.29 35.43 60.26 36.66C60.26 37.29 60.14 37.82 59.9 38.25Q59.81 38.41 59.71 38.55Q59.41 38.99 58.94 39.31Q58.31 39.73 57.44 39.91C56.88 40.03 56.26 40.09 55.58 40.09ZM56.09 49.3L51.56 49.3L51.56 42.82L56.9 42.82C57.46 42.82 58 42.87 58.52 42.97Q59.33 43.12 59.93 43.48Q60.14 43.6 60.33 43.77Q60.66 44.06 60.89 44.47C61.13 44.87 61.25 45.38 61.25 46Q61.25 47.11 60.77 47.77Q60.62 47.98 60.45 48.15Q60.07 48.53 59.54 48.76C59.04 48.98 58.49 49.13 57.89 49.21C57.29 49.27 56.69 49.3 56.09 49.3Z" fill="#FFFFFF" fill-opacity="1.000000" fill-rule="evenodd"/>
</svg>
