<svg width="31.000000" height="41.333374" viewBox="0 0 31 41.3334" fill="none" xmlns="http://www.w3.org/2000/svg" xmlns:xlink="http://www.w3.org/1999/xlink">
	<desc>
			Created with Pixso.
	</desc>
	<defs>
		<clipPath id="clip2014_520">
			<rect id="xls" rx="0.000000" width="29.851852" height="40.185184" transform="translate(0.574074 0.574074)" fill="white" fill-opacity="0"/>
		</clipPath>
	</defs>
	<rect id="xls" rx="0.000000" width="29.851852" height="40.185184" transform="translate(0.574074 0.574074)" fill="#FFFFFF" fill-opacity="0"/>
	<g clip-path="url(#clip2014_520)">
		<path id="Vector" d="M21.98 0L1.04 0C0.46 0 -0.01 0.48 -0.01 1.42L-0.01 40.59C-0.01 40.84 0.46 41.33 1.04 41.33L29.95 41.33C30.53 41.33 31 40.84 31 40.59L31 9.57C31 9.06 30.94 8.89 30.82 8.77L22.42 0.18C22.31 0.06 22.14 0 21.98 0Z" fill="#8EBD55" fill-opacity="1.000000" fill-rule="nonzero"/>
		<path id="Vector" d="M29.95 41.33L1.04 41.33C0.46 41.33 -0.01 40.84 -0.01 40.25L-0.01 28.78L31 28.78L31 40.25C31 40.84 30.53 41.33 29.95 41.33Z" fill="#34613A" fill-opacity="1.000000" fill-rule="nonzero"/>
		<path id=".xls" d="M21.29 38L21.29 30.69L22.36 30.69L22.36 38L21.29 38ZM24.95 37.98C25.2 38.03 25.46 38.06 25.71 38.06Q26.09 38.06 26.49 37.98C26.75 37.94 27 37.85 27.21 37.73C27.43 37.6 27.6 37.44 27.74 37.23C27.87 37.02 27.93 36.74 27.93 36.41Q27.93 36.03 27.8 35.76C27.72 35.58 27.59 35.44 27.43 35.32C27.27 35.2 27.07 35.11 26.85 35.05C26.67 34.99 26.45 34.94 26.18 34.9C25.91 34.85 25.66 34.8 25.42 34.74C25.26 34.71 25.11 34.66 24.98 34.61C24.85 34.55 24.76 34.48 24.69 34.39C24.63 34.3 24.59 34.19 24.59 34.06Q24.59 33.86 24.69 33.73Q24.7 33.73 24.7 33.73C24.77 33.64 24.86 33.57 24.97 33.52C25.08 33.47 25.19 33.44 25.31 33.43C25.43 33.41 25.55 33.41 25.65 33.41C25.94 33.41 26.19 33.47 26.38 33.58C26.58 33.69 26.7 33.84 26.74 34.03L27.75 34.03C27.71 33.68 27.6 33.4 27.41 33.17C27.21 32.94 26.97 32.77 26.67 32.65C26.38 32.54 26.04 32.48 25.68 32.48C25.4 32.48 25.13 32.51 24.87 32.57C24.62 32.63 24.39 32.73 24.19 32.86Q24.02 32.96 23.89 33.11Q23.79 33.22 23.72 33.34Q23.55 33.64 23.55 34.07Q23.55 34.28 23.59 34.45Q23.63 34.61 23.7 34.75Q23.71 34.77 23.72 34.78C23.77 34.88 23.84 34.98 23.91 35.06C23.99 35.14 24.07 35.21 24.17 35.27C24.44 35.43 24.75 35.55 25.1 35.62Q25.64 35.71 26.1 35.81C26.26 35.84 26.4 35.88 26.51 35.94Q26.68 36.01 26.77 36.14C26.84 36.22 26.88 36.32 26.88 36.45C26.88 36.6 26.84 36.73 26.76 36.83C26.69 36.92 26.59 36.99 26.48 37.03C26.36 37.08 26.23 37.11 26.1 37.13Q25.92 37.15 25.76 37.15Q25.5 37.15 25.24 37.08C25.06 37.03 24.9 36.95 24.76 36.85C24.62 36.74 24.53 36.61 24.47 36.45L23.39 36.45C23.43 36.75 23.52 37.02 23.67 37.23C23.83 37.44 24.01 37.6 24.23 37.73C24.45 37.85 24.69 37.94 24.95 37.98ZM17.21 35.22L15.28 38L16.48 38L17.86 36.01L19.27 38L20.53 38L18.56 35.25L20.39 32.55L19.16 32.55L17.92 34.5L16.64 32.55L15.37 32.55L17.21 35.22ZM13.45 38.02Q13.61 38.1 13.81 38.1Q14 38.1 14.15 38.02Q14.24 37.97 14.31 37.9Q14.37 37.84 14.42 37.77Q14.51 37.6 14.51 37.39C14.51 37.17 14.45 37 14.31 36.87Q14.23 36.78 14.13 36.73Q13.99 36.66 13.81 36.66Q13.65 36.66 13.51 36.72L13.51 36.72Q13.4 36.77 13.31 36.87C13.17 37 13.1 37.17 13.1 37.39Q13.1 37.62 13.21 37.79Q13.24 37.85 13.3 37.9Q13.37 37.97 13.45 38.02Z" fill="#FFFFFF" fill-opacity="1.000000" fill-rule="evenodd"/>
		<path id="Vector" d="M22.35 0.11L22.35 8.85L30.89 8.85L22.35 0.11Z" fill="#CAF892" fill-opacity="1.000000" fill-rule="nonzero"/>
	</g>
</svg>
